<svg xmlns="http://www.w3.org/2000/svg" width="1600" height="237" viewBox="0 0 1600 237">
    <defs>
        <linearGradient id="prefix__a" x1="50%" x2="50%" y1="10.272%" y2="100%">
            <stop offset="0%" stop-color="#F6F1EB"/>
            <stop offset="100%" stop-color="#EAD7B6"/>
        </linearGradient>
    </defs>
    <path fill="none" stroke="url(#prefix__a)" stroke-width=".889" d="M105.656 193.102c18.514 0 33.523 14.976 33.523 33.449 0 18.289-14.71 33.15-32.969 33.445l-.554.004h-4.105c-18.515 0-33.524-14.976-33.524-33.45 0-18.288 14.71-33.148 32.97-33.444l.554-.004h4.105zm-96.028 0c18.515 0 33.524 14.976 33.524 33.449 0 18.289-14.71 33.15-32.97 33.445l-.554.004H5.523C-12.99 260-28 245.024-28 226.55c0-18.288 14.71-33.148 32.969-33.444l.554-.004h4.105zm192.082 0c18.515 0 33.524 14.976 33.524 33.449 0 18.289-14.71 33.15-32.97 33.445l-.554.004h-4.105c-18.514 0-33.523-14.976-33.523-33.45 0-18.288 14.71-33.148 32.97-33.444l.553-.004h4.105zm96.055 0c18.515 0 33.523 14.976 33.523 33.449 0 18.289-14.71 33.15-32.969 33.445l-.554.004h-4.105c-18.514 0-33.523-14.976-33.523-33.45 0-18.288 14.71-33.148 32.969-33.444l.554-.004h4.105zm96.055 0c18.514 0 33.523 14.976 33.523 33.449 0 18.289-14.71 33.15-32.969 33.445l-.554.004h-4.105c-18.515 0-33.523-14.976-33.523-33.45 0-18.288 14.71-33.148 32.969-33.444l.554-.004h4.105zm96.055 0c18.514 0 33.523 14.976 33.523 33.449 0 18.289-14.71 33.15-32.97 33.445l-.553.004h-4.105c-18.515 0-33.524-14.976-33.524-33.45 0-18.288 14.71-33.148 32.97-33.444l.554-.004h4.105zm96.054 0c18.515 0 33.524 14.976 33.524 33.449 0 18.289-14.71 33.15-32.97 33.445l-.554.004h-4.105c-18.514 0-33.523-14.976-33.523-33.45 0-18.288 14.71-33.148 32.969-33.444l.554-.004h4.105zm96.055 0c18.514 0 33.523 14.976 33.523 33.449 0 18.289-14.71 33.15-32.969 33.445l-.554.004h-4.105c-18.514 0-33.523-14.976-33.523-33.45 0-18.288 14.71-33.148 32.969-33.444l.554-.004h4.105zm96.055 0c18.514 0 33.523 14.976 33.523 33.449 0 18.289-14.71 33.15-32.969 33.445l-.554.004h-4.105c-18.515 0-33.524-14.976-33.524-33.45 0-18.288 14.71-33.148 32.97-33.444l.554-.004h4.105zm96.055 0c18.514 0 33.523 14.976 33.523 33.449 0 18.289-14.71 33.15-32.97 33.445l-.553.004h-4.105c-18.515 0-33.524-14.976-33.524-33.45 0-18.288 14.71-33.148 32.97-33.444l.554-.004h4.105zm96.054 0c18.515 0 33.524 14.976 33.524 33.449 0 18.289-14.71 33.15-32.97 33.445l-.554.004h-4.105c-18.514 0-33.523-14.976-33.523-33.45 0-18.288 14.71-33.148 32.969-33.444l.554-.004h4.105zm96.055 0c18.514 0 33.523 14.976 33.523 33.449 0 18.289-14.71 33.15-32.969 33.445l-.554.004h-4.105c-18.514 0-33.523-14.976-33.523-33.45 0-18.288 14.71-33.148 32.969-33.444l.554-.004h4.105zm96.055 0c18.514 0 33.523 14.976 33.523 33.449 0 18.289-14.71 33.15-32.969 33.445l-.554.004h-4.105c-18.515 0-33.524-14.976-33.524-33.45 0-18.288 14.71-33.148 32.97-33.444l.554-.004h4.105zm96.054 0c18.515 0 33.524 14.976 33.524 33.449 0 18.289-14.71 33.15-32.97 33.445l-.554.004h-4.104c-18.515 0-33.524-14.976-33.524-33.45 0-18.288 14.71-33.148 32.97-33.444l.554-.004h4.104zm96.055 0c18.515 0 33.524 14.976 33.524 33.449 0 18.289-14.71 33.15-32.97 33.445l-.554.004h-4.105c-18.514 0-33.523-14.976-33.523-33.45 0-18.288 14.71-33.148 32.969-33.444l.554-.004h4.105zm96.055 0c18.514 0 33.523 14.976 33.523 33.449 0 18.289-14.71 33.15-32.969 33.445l-.554.004h-4.105c-18.514 0-33.523-14.976-33.523-33.45 0-18.288 14.71-33.148 32.969-33.444l.554-.004h4.105zm96.055 0c18.514 0 33.523 14.976 33.523 33.449 0 18.289-14.71 33.15-32.969 33.445l-.554.004h-4.105c-18.515 0-33.524-14.976-33.524-33.45 0-18.288 14.71-33.148 32.97-33.444l.554-.004h4.105zM217.902 210.174L199.43 225.38l-18.472-15.206v38.336c1.814 1.372 3.804 2.525 5.93 3.42v-29.558l19.611 15.018v-10.384l5.93-4.778v27.16l-19.613-15.018v19.3c1.38.242 2.796.38 4.239.408l.55.006h4.105c6.05 0 11.645-1.942 16.192-5.236v-38.674zm-192.082 0L7.348 225.38l-18.472-15.206v38.336c1.814 1.372 3.803 2.525 5.93 3.42l-.001-29.558 19.612 15.018v-10.384l5.93-4.778v27.16L.734 234.37v19.3c1.38.242 2.796.38 4.239.408l.55.006h4.105c6.05 0 11.644-1.942 16.192-5.236v-38.674zm384.191 0L391.54 225.38l-18.472-15.206v38.336c1.814 1.372 3.804 2.525 5.93 3.42v-29.558l19.612 15.018v-10.384l5.93-4.778v27.16l-19.613-15.018v19.3c1.38.242 2.796.38 4.238.408l.55.006h4.106c6.05 0 11.644-1.942 16.192-5.236v-38.674zm576.329 0l-18.472 15.206-18.472-15.206v38.336c1.814 1.372 3.803 2.525 5.929 3.42v-29.558l19.612 15.018v-10.384l5.93-4.778v27.16l-19.613-15.018v19.3c1.38.242 2.796.38 4.239.408l.55.006h4.105c6.05 0 11.644-1.942 16.192-5.236v-38.674zm-672.383 0l-18.472 15.206-18.472-15.206-.001 38.336c1.814 1.372 3.804 2.525 5.93 3.42v-29.558l19.612 15.018v-10.384l5.93-4.778v27.16L288.87 234.37v19.3c1.38.242 2.796.38 4.239.408l.55.006h4.105c6.05 0 11.644-1.942 16.192-5.236v-38.674zm288.164 0l-18.472 15.206-18.472-15.206v38.336c1.814 1.372 3.803 2.525 5.93 3.42l-.001-29.558 19.612 15.018v-10.384l5.93-4.778v27.16l-19.613-15.018v19.3c1.38.242 2.796.38 4.239.408l.55.006h4.105c6.05 0 11.644-1.942 16.192-5.236v-38.674zm960.547 0l-18.472 15.206-18.472-15.206v38.336c1.814 1.372 3.804 2.525 5.93 3.42v-29.558l19.612 15.018v-10.384l5.929-4.778v27.16l-19.612-15.018v19.3c1.38.242 2.796.38 4.238.408l.55.006h4.106c6.049 0 11.644-1.942 16.192-5.236v-38.674zm-768.438 0l-18.472 15.206-18.472-15.206v38.336c1.814 1.372 3.804 2.525 5.93 3.42v-29.558l19.612 15.018v-10.384l5.93-4.778v27.16l-19.613-15.018v19.3c1.38.242 2.796.38 4.238.408l.55.006h4.106c6.05 0 11.644-1.942 16.192-5.236v-38.674zm672.383 0l-18.472 15.206-18.472-15.206v38.336c1.814 1.372 3.804 2.525 5.93 3.42v-29.558l19.612 15.018v-10.384l5.93-4.778v27.16l-19.613-15.018v19.3c1.38.242 2.796.38 4.239.408l.55.006h4.105c6.05 0 11.644-1.942 16.192-5.236v-38.674zm-288.164 0l-18.472 15.206-18.472-15.206v38.336c1.814 1.372 3.804 2.525 5.93 3.42v-29.558l19.612 15.018v-10.384l5.929-4.778v27.16l-19.612-15.018v19.3c1.38.242 2.796.38 4.238.408l.55.006h4.106c6.05 0 11.644-1.942 16.192-5.236v-38.674zm192.11 0l-18.472 15.206-18.472-15.206-.001 38.336c1.815 1.372 3.804 2.525 5.93 3.42v-29.558l19.612 15.018v-10.384l5.93-4.778v27.16l-19.613-15.018v19.3c1.38.242 2.796.38 4.239.408l.55.006h4.105c6.05 0 11.644-1.942 16.192-5.236v-38.674zm-672.383 0l-18.472 15.206-18.473-15.206v38.336c1.814 1.372 3.804 2.525 5.93 3.42v-29.558l19.612 15.018v-10.384l5.93-4.778v27.16L673.09 234.37v19.3c1.38.242 2.796.38 4.239.408l.55.006h4.105c6.05 0 11.644-1.942 16.192-5.236v-38.674zm576.328 0l-18.472 15.206-18.472-15.206v38.336c1.814 1.372 3.804 2.525 5.93 3.42v-29.558l19.611 15.018v-10.384l5.93-4.778v27.16l-19.613-15.018v19.3c1.38.242 2.796.38 4.239.408l.55.006h4.105c6.05 0 11.645-1.942 16.192-5.236v-38.674zm-192.11 0l-18.472 15.206-18.472-15.206v38.336c1.814 1.372 3.804 2.525 5.93 3.42v-29.558l19.612 15.018v-10.384l5.93-4.778v27.16l-19.613-15.018v19.3c1.38.242 2.796.38 4.239.408l.55.006h4.105c6.05 0 11.644-1.942 16.192-5.236v-38.674zm-192.109 0l-18.472 15.206-18.472-15.206v38.336c1.814 1.372 3.804 2.525 5.93 3.42v-29.558l19.612 15.018v-10.384l5.929-4.778v27.16L865.2 234.37v19.3c1.38.242 2.795.38 4.238.408l.55.006h4.106c6.049 0 11.644-1.942 16.191-5.236v-38.674zm-384.219 0l-18.472 15.206-18.472-15.206v38.336c1.814 1.372 3.804 2.525 5.93 3.42v-29.558l19.612 15.018v-10.384l5.929-4.778v27.16L480.98 234.37v19.3c1.38.242 2.796.38 4.238.408l.55.006h4.106c6.049 0 11.644-1.942 16.192-5.236v-38.674zm-384.219 0l-18.472 15.206-18.472-15.206v38.336c1.814 1.372 3.804 2.525 5.93 3.42v-29.558l19.612 15.018v-10.384l5.929-4.778v27.16L96.762 234.37v19.3c1.38.242 2.796.38 4.238.408l.55.006h4.106c6.049 0 11.644-1.942 16.192-5.236v-38.674zm582.26-.083v32.92c3.436-4.592 5.471-10.289 5.471-16.46 0-6.171-2.035-11.869-5.472-16.46zm96.054 0v32.92c3.437-4.592 5.472-10.289 5.472-16.46 0-6.171-2.035-11.869-5.472-16.46zm-192.11 0v32.92c3.437-4.592 5.472-10.289 5.472-16.46 0-6.171-2.035-11.869-5.471-16.46zm288.165 0v32.92c3.437-4.592 5.472-10.289 5.472-16.46 0-6.171-2.035-11.869-5.472-16.46zm96.054 0v32.92c3.437-4.592 5.472-10.289 5.472-16.46 0-6.171-2.035-11.869-5.472-16.46zm384.22 0v32.92c3.436-4.592 5.471-10.289 5.471-16.46 0-6.171-2.035-11.869-5.472-16.46zm-96.055 0v32.92c3.437-4.592 5.472-10.289 5.472-16.46 0-6.171-2.035-11.869-5.472-16.46zm-768.438 0v32.92c3.437-4.592 5.472-10.289 5.472-16.46 0-6.171-2.035-11.869-5.472-16.46zm960.547 0v32.92c3.437-4.592 5.472-10.289 5.472-16.46 0-6.171-2.035-11.869-5.472-16.46zm-1344.766 0v32.92c3.437-4.592 5.472-10.289 5.472-16.46 0-6.171-2.035-11.869-5.472-16.46zm1056.602 0v32.92c3.437-4.592 5.472-10.289 5.472-16.46 0-6.171-2.035-11.869-5.472-16.46zm-864.493 0v32.92c3.437-4.592 5.472-10.289 5.472-16.46 0-6.171-2.035-11.869-5.472-16.46zm96.055 0v32.92c3.437-4.592 5.472-10.289 5.472-16.46 0-6.171-2.035-11.869-5.472-16.46zm-192.11 0v32.92c3.437-4.592 5.472-10.289 5.472-16.46 0-6.171-2.035-11.869-5.471-16.46zm1344.767 0v32.92c3.437-4.592 5.472-10.289 5.472-16.46 0-6.171-2.035-11.869-5.472-16.46zm-1536.849 0v32.92c3.437-4.592 5.472-10.289 5.472-16.46 0-6.171-2.035-11.869-5.472-16.46zm1056.575 0v32.92c3.437-4.592 5.472-10.289 5.472-16.46 0-6.171-2.035-11.869-5.472-16.46zm431.47.626c-3.161 4.479-5.017 9.94-5.017 15.834s1.856 11.355 5.017 15.834v-31.668zm-384.22 0c-3.16 4.479-5.016 9.94-5.016 15.834s1.856 11.355 5.017 15.834v-31.668zm96.055 0c-3.16 4.479-5.017 9.94-5.017 15.834s1.857 11.355 5.017 15.834v-31.668zm192.11 0c-3.161 4.479-5.017 9.94-5.017 15.834s1.856 11.355 5.017 15.834v-31.668zm-96.055 0c-3.16 4.479-5.017 9.94-5.017 15.834s1.856 11.355 5.017 15.834v-31.668zm-384.219 0c-3.16 4.479-5.017 9.94-5.017 15.834s1.856 11.355 5.017 15.834v-31.668zm-960.52 0c-3.16 4.479-5.017 9.94-5.017 15.834s1.856 11.355 5.017 15.834v-31.668zm192.082 0c-3.16 4.479-5.017 9.94-5.017 15.834s1.857 11.355 5.017 15.834v-31.668zm480.274 0c-3.16 4.479-5.017 9.94-5.017 15.834s1.856 11.355 5.017 15.834v-31.668zm-288.164 0c-3.161 4.479-5.017 9.94-5.017 15.834s1.856 11.355 5.017 15.834v-31.668zm96.055 0c-3.161 4.479-5.017 9.94-5.017 15.834s1.856 11.355 5.017 15.834v-31.668zm576.328 0c-3.16 4.479-5.017 9.94-5.017 15.834s1.856 11.355 5.017 15.834v-31.668zm-480.274 0c-3.16 4.479-5.017 9.94-5.017 15.834s1.856 11.355 5.017 15.834v-31.668zm192.11 0c-3.161 4.479-5.017 9.94-5.017 15.834s1.856 11.355 5.017 15.834v-31.668zm-480.274 0c-3.16 4.479-5.017 9.94-5.017 15.834s1.856 11.355 5.017 15.834v-31.668zm-192.11 0c-3.16 4.479-5.016 9.94-5.016 15.834s1.856 11.355 5.017 15.834v-31.668zm768.438 0c-3.16 4.479-5.016 9.94-5.016 15.834s1.856 11.355 5.016 15.834v-31.668zm-549.646-11.699h-4.105c-5.654 0-10.91 1.697-15.286 4.607l17.11 14.085 17.18-14.141h.302c-4.36-2.876-9.584-4.551-15.2-4.551zm960.547 0h-4.104c-5.654 0-10.911 1.697-15.287 4.607l17.11 14.085 17.18-14.141h.302c-4.359-2.876-9.584-4.551-15.2-4.551zm-1056.602 0h-4.105c-5.653 0-10.91 1.697-15.286 4.607l17.11 14.085 17.18-14.141h.302c-4.359-2.876-9.584-4.551-15.2-4.551zm576.329 0h-4.105c-5.654 0-10.91 1.697-15.287 4.607l17.111 14.085 17.18-14.141h.301c-4.358-2.876-9.583-4.551-15.2-4.551zm-384.22 0h-4.104c-5.654 0-10.91 1.697-15.287 4.607l17.111 14.085 17.18-14.141h.302c-4.36-2.876-9.584-4.551-15.201-4.551zm672.384 0h-4.105c-5.654 0-10.91 1.697-15.287 4.607l17.111 14.085 17.18-14.141h.302c-4.36-2.876-9.584-4.551-15.201-4.551zm-384.219 0h-4.105c-5.654 0-10.91 1.697-15.287 4.607l17.112 14.085 17.178-14.141h.303c-4.36-2.876-9.584-4.551-15.201-4.551zm768.438 0h-4.105c-5.654 0-10.91 1.697-15.287 4.607l17.111 14.085 17.18-14.141h.302c-4.36-2.876-9.584-4.551-15.201-4.551zm-1440.794 0H5.523c-5.653 0-10.91 1.697-15.286 4.607l17.11 14.085 17.18-14.141h.302c-4.359-2.876-9.584-4.551-15.2-4.551zm1344.74 0h-4.106c-5.654 0-10.91 1.697-15.286 4.607l17.11 14.085 17.18-14.141h.302c-4.359-2.876-9.584-4.551-15.2-4.551zm-1248.712 0h-4.105c-5.654 0-10.91 1.697-15.287 4.607l17.111 14.085 17.18-14.141h.301c-4.359-2.876-9.583-4.551-15.2-4.551zm864.492 0h-4.105c-5.654 0-10.91 1.697-15.286 4.607l17.11 14.085 17.18-14.141h.302c-4.359-2.876-9.584-4.551-15.2-4.551zm-480.273 0h-4.105c-5.654 0-10.91 1.697-15.287 4.607l17.111 14.085 17.179-14.141h.302c-4.359-2.876-9.584-4.551-15.2-4.551zm384.219 0h-4.105c-5.654 0-10.911 1.697-15.287 4.607l17.111 14.085 17.179-14.141h.302c-4.359-2.876-9.584-4.551-15.2-4.551zm288.164 0h-4.105c-5.654 0-10.91 1.697-15.287 4.607l17.111 14.085 17.18-14.141h.301c-4.359-2.876-9.583-4.551-15.2-4.551zm-576.329 0h-4.105c-5.653 0-10.91 1.697-15.286 4.607l17.11 14.085 17.18-14.141h.302c-4.359-2.876-9.584-4.551-15.2-4.551zm960.548 0h-4.105c-5.654 0-10.91 1.697-15.287 4.607l17.111 14.085 17.18-14.141h.301c-4.359-2.876-9.583-4.551-15.2-4.551zm-1392.794-79.95c18.514 0 33.523 14.976 33.523 33.449 0 18.289-14.71 33.15-32.969 33.445l-.554.004h-4.105c-18.514 0-33.523-14.976-33.523-33.449 0-18.289 14.71-33.15 32.969-33.445l.554-.004h4.105zm1152.657 0c18.514 0 33.523 14.976 33.523 33.449 0 18.289-14.71 33.15-32.969 33.445l-.554.004h-4.105c-18.515 0-33.523-14.976-33.523-33.449 0-18.289 14.71-33.15 32.969-33.445l.554-.004h4.105zm-1056.602 0c18.514 0 33.523 14.976 33.523 33.449 0 18.289-14.71 33.15-32.969 33.445l-.554.004h-4.105c-18.515 0-33.524-14.976-33.524-33.449 0-18.289 14.71-33.15 32.97-33.445l.554-.004h4.105zm192.11 0c18.514 0 33.523 14.976 33.523 33.449 0 18.289-14.71 33.15-32.97 33.445l-.554.004h-4.105c-18.514 0-33.523-14.976-33.523-33.449 0-18.289 14.71-33.15 32.969-33.445l.554-.004h4.105zm-96.056 0c18.515 0 33.524 14.976 33.524 33.449 0 18.289-14.71 33.15-32.97 33.445l-.554.004h-4.104c-18.515 0-33.524-14.976-33.524-33.449 0-18.289 14.71-33.15 32.97-33.445l.554-.004h4.104zm864.493 0c18.515 0 33.523 14.976 33.523 33.449 0 18.289-14.71 33.15-32.969 33.445l-.554.004h-4.105c-18.514 0-33.523-14.976-33.523-33.449 0-18.289 14.71-33.15 32.969-33.445l.554-.004h4.105zm288.164 0c18.515 0 33.524 14.976 33.524 33.449 0 18.289-14.71 33.15-32.97 33.445l-.554.004h-4.105c-18.514 0-33.523-14.976-33.523-33.449 0-18.289 14.71-33.15 32.969-33.445l.554-.004h4.105zm96.18 0c18.514 0 33.523 14.976 33.523 33.449 0 18.289-14.71 33.15-32.97 33.445l-.554.004h-4.105c-18.514 0-33.523-14.976-33.523-33.449 0-18.289 14.71-33.15 32.969-33.445l.554-.004h4.105zm-1056.727 0c18.514 0 33.523 14.976 33.523 33.449 0 18.289-14.71 33.15-32.969 33.445l-.554.004h-4.105c-18.514 0-33.523-14.976-33.523-33.449 0-18.289 14.71-33.15 32.969-33.445l.554-.004h4.105zm96.055 0c18.514 0 33.523 14.976 33.523 33.449 0 18.289-14.71 33.15-32.969 33.445l-.554.004h-4.105c-18.515 0-33.524-14.976-33.524-33.449 0-18.289 14.71-33.15 32.97-33.445l.554-.004h4.105zm96.054 0c18.515 0 33.524 14.976 33.524 33.449 0 18.289-14.71 33.15-32.97 33.445l-.554.004h-4.105c-18.514 0-33.523-14.976-33.523-33.449 0-18.289 14.71-33.15 32.97-33.445l.553-.004h4.105zm384.22 0c18.514 0 33.523 14.976 33.523 33.449 0 18.289-14.71 33.15-32.97 33.445l-.554.004h-4.105c-18.514 0-33.523-14.976-33.523-33.449 0-18.289 14.71-33.15 32.97-33.445l.553-.004h4.105zm-1056.603 0c18.515 0 33.524 14.976 33.524 33.449 0 18.289-14.71 33.15-32.97 33.445l-.554.004h-4.105C35.01 185.966 20 170.99 20 152.517c0-18.289 14.71-33.15 32.969-33.445l.554-.004h4.105zm768.438 0c18.515 0 33.524 14.976 33.524 33.449 0 18.289-14.71 33.15-32.97 33.445l-.554.004h-4.105c-18.514 0-33.523-14.976-33.523-33.449 0-18.289 14.71-33.15 32.969-33.445l.554-.004h4.105zm96.055 0c18.514 0 33.523 14.976 33.523 33.449 0 18.289-14.71 33.15-32.969 33.445l-.554.004h-4.105c-18.514 0-33.523-14.976-33.523-33.449 0-18.289 14.71-33.15 32.969-33.445l.554-.004h4.105zm96.055 0c18.514 0 33.523 14.976 33.523 33.449 0 18.289-14.71 33.15-32.969 33.445l-.554.004h-4.105c-18.515 0-33.524-14.976-33.524-33.449 0-18.289 14.71-33.15 32.97-33.445l.554-.004h4.105zm384.219 0c18.514 0 33.523 14.976 33.523 33.449 0 18.289-14.71 33.15-32.97 33.445l-.553.004h-4.105c-18.515 0-33.524-14.976-33.524-33.449 0-18.289 14.71-33.15 32.97-33.445l.554-.004h4.105zm208.425 17.072l-18.472 15.206-18.472-15.206v38.336c1.814 1.372 3.803 2.525 5.93 3.42l-.001-29.558 19.612 15.018v-10.384l5.93-4.778v27.16l-19.613-15.018v19.3c1.38.242 2.796.38 4.239.409l.55.005h4.105c6.05 0 11.644-1.942 16.192-5.236V136.14zm-960.672 0l-18.472 15.206-18.472-15.206v38.336c1.814 1.372 3.804 2.525 5.93 3.42v-29.558l19.612 15.018v-10.384l5.929-4.778v27.16l-19.612-15.018v19.3c1.38.242 2.796.38 4.238.409l.55.005h4.106c6.05 0 11.644-1.942 16.192-5.236V136.14zm576.329 0l-18.472 15.206-18.473-15.206v38.336c1.814 1.372 3.804 2.525 5.93 3.42v-29.558l19.612 15.018v-10.384l5.93-4.778v27.16l-19.613-15.018v19.3c1.38.242 2.796.38 4.239.409l.55.005h4.105c6.05 0 11.644-1.942 16.192-5.236V136.14zm288.164 0l-18.472 15.206-18.472-15.206v38.336c1.814 1.372 3.803 2.525 5.93 3.42l-.001-29.558 19.612 15.018v-10.384l5.93-4.778v27.16l-19.613-15.018v19.3c1.38.242 2.796.38 4.239.409l.55.005h4.105c6.05 0 11.644-1.942 16.192-5.236V136.14zm-1440.821 0l-18.472 15.206-18.472-15.206v38.336c1.814 1.372 3.803 2.525 5.93 3.42l-.001-29.558 19.612 15.018v-10.384l5.93-4.778v27.16l-19.613-15.018v19.3c1.38.242 2.796.38 4.239.409l.55.005h4.105c6.05 0 11.644-1.942 16.192-5.236V136.14zm768.438 0l-18.472 15.206-18.472-15.206-.001 38.336c1.815 1.372 3.804 2.525 5.93 3.42v-29.558l19.612 15.018v-10.384l5.93-4.778v27.16l-19.613-15.018v19.3c1.38.242 2.796.38 4.239.409l.55.005h4.105c6.05 0 11.644-1.942 16.192-5.236V136.14zm-96.055 0l-18.472 15.206-18.472-15.206v38.336c1.814 1.372 3.804 2.525 5.93 3.42v-29.558l19.611 15.018v-10.384l5.93-4.778v27.16l-19.613-15.018v19.3c1.38.242 2.796.38 4.239.409l.55.005h4.105c6.05 0 11.645-1.942 16.192-5.236V136.14zm384.219 0l-18.472 15.206-18.472-15.206v38.336c1.814 1.372 3.803 2.525 5.93 3.42v-29.558l19.611 15.018v-10.384l5.93-4.778v27.16l-19.613-15.018v19.3c1.38.242 2.796.38 4.239.409l.55.005h4.105c6.05 0 11.644-1.942 16.192-5.236V136.14zm-192.11 0l-18.472 15.206-18.472-15.206v38.336c1.814 1.372 3.804 2.525 5.93 3.42v-29.558l19.612 15.018v-10.384l5.93-4.778v27.16l-19.613-15.018v19.3c1.38.242 2.796.38 4.238.409l.551.005h4.105c6.05 0 11.644-1.942 16.192-5.236V136.14zm96.055 0l-18.472 15.206-18.472-15.206v38.336c1.814 1.372 3.804 2.525 5.93 3.42v-29.558l19.612 15.018v-10.384l5.929-4.778v27.16l-19.612-15.018v19.3c1.38.242 2.796.38 4.238.409l.55.005h4.106c6.049 0 11.644-1.942 16.192-5.236V136.14zm-480.273 0l-18.473 15.206-18.472-15.206v38.336c1.814 1.372 3.804 2.525 5.93 3.42v-29.558l19.612 15.018v-10.384l5.93-4.778v27.16l-19.613-15.018v19.3c1.38.242 2.796.38 4.239.409l.55.005h4.105c6.05 0 11.644-1.942 16.192-5.236V136.14zm-384.22 0l-18.471 15.206-18.473-15.206v38.336c1.814 1.372 3.804 2.525 5.93 3.42v-29.558l19.612 15.018v-10.384l5.93-4.778v27.16l-19.613-15.018v19.3c1.38.242 2.796.38 4.239.409l.55.005h4.105c6.05 0 11.644-1.942 16.192-5.236V136.14zm288.165 0l-18.472 15.206-18.472-15.206v38.336c1.814 1.372 3.803 2.525 5.929 3.42v-29.558l19.612 15.018v-10.384l5.93-4.778v27.16l-19.613-15.018v19.3c1.38.242 2.796.38 4.239.409l.55.005h4.105c6.05 0 11.644-1.942 16.192-5.236V136.14zm-96.055 0l-18.472 15.206-18.472-15.206v38.336c1.814 1.372 3.804 2.525 5.93 3.42v-29.558l19.612 15.018v-10.384l5.929-4.778v27.16l-19.612-15.018v19.3c1.38.242 2.795.38 4.238.409l.55.005h4.105c6.05 0 11.645-1.942 16.192-5.236V136.14zm960.547 0l-18.472 15.206-18.472-15.206v38.336c1.814 1.372 3.804 2.525 5.93 3.42v-29.558l19.612 15.018v-10.384l5.93-4.778v27.16l-19.613-15.018v19.3c1.38.242 2.796.38 4.238.409l.55.005h4.106c6.05 0 11.644-1.942 16.192-5.236V136.14zm96.055 0l-18.472 15.206-18.472-15.206v38.336c1.814 1.372 3.804 2.525 5.93 3.42v-29.558l19.612 15.018v-10.384l5.929-4.778v27.16l-19.612-15.018v19.3c1.38.242 2.796.38 4.238.409l.55.005h4.106c6.049 0 11.644-1.942 16.191-5.236V136.14zm-1152.657 0l-18.472 15.206-18.472-15.206v38.336c1.814 1.372 3.804 2.525 5.93 3.42v-29.558l19.612 15.018v-10.384l5.93-4.778v27.16l-19.613-15.018v19.3c1.38.242 2.796.38 4.238.409l.55.005h4.106c6.05 0 11.644-1.942 16.192-5.236V136.14zm390.15-.083v32.92c3.437-4.591 5.472-10.289 5.472-16.46 0-6.171-2.035-11.869-5.472-16.46zm-384.22 0v32.92c3.438-4.591 5.473-10.289 5.473-16.46 0-6.171-2.035-11.869-5.472-16.46zm-192.109 0v32.92c3.437-4.591 5.472-10.289 5.472-16.46 0-6.171-2.035-11.869-5.472-16.46zm768.438 0v32.92c3.437-4.591 5.472-10.289 5.472-16.46 0-6.171-2.035-11.869-5.472-16.46zm288.165 0v32.92c3.436-4.591 5.471-10.289 5.471-16.46 0-6.171-2.035-11.869-5.471-16.46zm-768.438 0v32.92c3.437-4.591 5.472-10.289 5.472-16.46 0-6.171-2.035-11.869-5.472-16.46zm192.11 0v32.92c3.436-4.591 5.471-10.289 5.471-16.46 0-6.171-2.035-11.869-5.472-16.46zm-384.22 0v32.92c3.437-4.591 5.472-10.289 5.472-16.46 0-6.171-2.035-11.869-5.472-16.46zm768.438 0v32.92c3.437-4.591 5.472-10.289 5.472-16.46 0-6.171-2.035-11.869-5.472-16.46zm576.328 0v32.92c3.437-4.591 5.472-10.289 5.472-16.46 0-6.171-2.035-11.869-5.472-16.46zm-768.437 0v32.92c3.437-4.591 5.471-10.289 5.471-16.46 0-6.171-2.034-11.869-5.471-16.46zm480.273 0v32.92c3.437-4.591 5.472-10.289 5.472-16.46 0-6.171-2.035-11.869-5.472-16.46zm384.343 0v32.92c3.437-4.591 5.472-10.289 5.472-16.46 0-6.171-2.035-11.869-5.472-16.46zm-288.288 0v32.92c3.437-4.591 5.472-10.289 5.472-16.46 0-6.171-2.035-11.869-5.472-16.46zm-288.164 0v32.92c3.437-4.591 5.472-10.289 5.472-16.46 0-6.171-2.035-11.869-5.472-16.46zm-576.329 0v32.92c3.437-4.591 5.472-10.289 5.472-16.46 0-6.171-2.035-11.869-5.472-16.46zm960.548 0v32.92c3.437-4.591 5.472-10.289 5.472-16.46 0-6.171-2.035-11.869-5.472-16.46zM127 136.683c-3.16 4.479-5.017 9.94-5.017 15.834s1.856 11.355 5.017 15.834v-31.668zm480.274 0c-3.161 4.479-5.017 9.94-5.017 15.834s1.856 11.355 5.017 15.834v-31.668zm288.164 0c-3.161 4.479-5.017 9.94-5.017 15.834s1.856 11.355 5.017 15.834v-31.668zm-864.493 0c-3.16 4.479-5.017 9.94-5.017 15.834s1.856 11.355 5.017 15.834v-31.668zm960.548 0c-3.161 4.479-5.017 9.94-5.017 15.834s1.856 11.355 5.017 15.834v-31.668zm-288.165 0c-3.16 4.479-5.017 9.94-5.017 15.834s1.857 11.355 5.017 15.834v-31.668zm480.274 0c-3.16 4.479-5.017 9.94-5.017 15.834s1.856 11.355 5.017 15.834v-31.668zm384.343 0c-3.16 4.479-5.017 9.94-5.017 15.834s1.856 11.355 5.017 15.834v-31.668zm-1344.89 0c-3.161 4.479-5.017 9.94-5.017 15.834s1.856 11.355 5.017 15.834v-31.668zm192.11 0c-3.162 4.479-5.018 9.94-5.018 15.834s1.856 11.355 5.017 15.834v-31.668zm864.492 0c-3.161 4.479-5.017 9.94-5.017 15.834s1.856 11.355 5.017 15.834v-31.668zm-480.274 0c-3.16 4.479-5.017 9.94-5.017 15.834s1.856 11.355 5.017 15.834v-31.668zm576.328 0c-3.16 4.479-5.016 9.94-5.016 15.834s1.856 11.355 5.016 15.834v-31.668zm-288.164 0c-3.16 4.479-5.017 9.94-5.017 15.834s1.856 11.355 5.017 15.834v-31.668zm384.22 0c-3.162 4.479-5.018 9.94-5.018 15.834s1.856 11.355 5.017 15.834v-31.668zm-1152.658 0c-3.16 4.479-5.016 9.94-5.016 15.834s1.856 11.355 5.016 15.834v-31.668zm192.11 0c-3.16 4.479-5.017 9.94-5.017 15.834s1.856 11.355 5.017 15.834v-31.668zm699.065-11.699h-4.105c-5.654 0-10.91 1.697-15.287 4.608l17.112 14.084 17.178-14.141h.303c-4.36-2.876-9.584-4.55-15.2-4.55zm-1056.602 0h-4.105c-5.654 0-10.91 1.697-15.287 4.608l17.112 14.084 17.178-14.141h.303c-4.36-2.876-9.584-4.55-15.201-4.55zm384.219 0h-4.105c-5.654 0-10.91 1.697-15.287 4.608l17.111 14.084 17.18-14.141h.302c-4.36-2.876-9.584-4.55-15.201-4.55zm576.328 0h-4.105c-5.653 0-10.91 1.697-15.286 4.608l17.11 14.084 17.18-14.141h.302c-4.359-2.876-9.584-4.55-15.2-4.55zm-1056.602 0h-4.105c-5.653 0-10.91 1.697-15.286 4.608l17.11 14.084 17.18-14.141h.302c-4.359-2.876-9.584-4.55-15.2-4.55zm1344.767 0h-4.105c-5.654 0-10.911 1.697-15.287 4.608l17.111 14.084 17.179-14.141h.302c-4.359-2.876-9.584-4.55-15.2-4.55zm-1056.603 0h-4.104c-5.654 0-10.911 1.697-15.287 4.608l17.111 14.084 17.179-14.141h.302c-4.359-2.876-9.584-4.55-15.2-4.55zm1248.836 0h-4.105c-5.653 0-10.91 1.697-15.286 4.608l17.11 14.084 17.18-14.141h.302c-4.359-2.876-9.584-4.55-15.2-4.55zm-1344.89 0h-4.105c-5.654 0-10.91 1.697-15.287 4.608l17.111 14.084 17.18-14.141h.301c-4.358-2.876-9.583-4.55-15.2-4.55zm1248.711 0h-4.105c-5.654 0-10.91 1.697-15.286 4.608l17.11 14.084 17.18-14.141h.302c-4.359-2.876-9.584-4.55-15.2-4.55zm-672.383 0h-4.105c-5.654 0-10.91 1.697-15.286 4.608l17.11 14.084 17.18-14.141h.302c-4.36-2.876-9.584-4.55-15.2-4.55zm-384.219 0h-4.105c-5.654 0-10.91 1.697-15.286 4.608l17.11 14.084 17.18-14.141h.302c-4.359-2.876-9.584-4.55-15.2-4.55zm192.11 0h-4.105c-5.654 0-10.91 1.697-15.287 4.608l17.111 14.084 17.18-14.141h.301c-4.359-2.876-9.583-4.55-15.2-4.55zm672.383 0h-4.105c-5.654 0-10.91 1.697-15.287 4.608l17.111 14.084 17.18-14.141h.301c-4.358-2.876-9.583-4.55-15.2-4.55zm-384.22 0h-4.104c-5.654 0-10.91 1.697-15.287 4.608l17.111 14.084 17.18-14.141h.302c-4.36-2.876-9.584-4.55-15.201-4.55zm96.056 0h-4.105c-5.654 0-10.91 1.697-15.287 4.608l17.111 14.084 17.179-14.141h.302c-4.359-2.876-9.584-4.55-15.2-4.55zm-288.165 0h-4.105c-5.653 0-10.91 1.697-15.286 4.608l17.11 14.084 17.18-14.141h.302c-4.359-2.876-9.584-4.55-15.2-4.55zm-432.246-79.95c18.515 0 33.523 14.976 33.523 33.449 0 18.289-14.71 33.15-32.969 33.445l-.554.004h-4.105c-18.514 0-33.523-14.976-33.523-33.449 0-18.289 14.71-33.15 32.969-33.445l.554-.004h4.105zm1056.602 0c18.515 0 33.524 14.976 33.524 33.449 0 18.289-14.71 33.15-32.97 33.445l-.554.004h-4.105c-18.514 0-33.523-14.976-33.523-33.449 0-18.289 14.71-33.15 32.969-33.445l.554-.004h4.105zm-1152.657 0c18.515 0 33.524 14.976 33.524 33.449 0 18.289-14.71 33.15-32.97 33.445l-.554.004h-4.105c-18.514 0-33.523-14.976-33.523-33.449 0-18.289 14.71-33.15 32.97-33.445l.553-.004h4.105zm384.22 0c18.514 0 33.523 14.976 33.523 33.449 0 18.289-14.71 33.15-32.97 33.445l-.554.004h-4.105c-18.514 0-33.523-14.976-33.523-33.449 0-18.289 14.71-33.15 32.969-33.445l.554-.004h4.105zm-576.302 0c18.515 0 33.524 14.976 33.524 33.449 0 18.289-14.71 33.15-32.97 33.445l-.554.004H5.523C-12.99 111.932-28 96.956-28 78.483c0-18.289 14.71-33.15 32.969-33.445l.554-.004h4.105zm384.192 0c18.514 0 33.523 14.976 33.523 33.449 0 18.289-14.71 33.15-32.969 33.445l-.554.004h-4.105c-18.515 0-33.523-14.976-33.523-33.449 0-18.289 14.71-33.15 32.969-33.445l.554-.004h4.105zm1056.602 0c18.514 0 33.523 14.976 33.523 33.449 0 18.289-14.71 33.15-32.969 33.445l-.554.004h-4.105c-18.514 0-33.523-14.976-33.523-33.449 0-18.289 14.71-33.15 32.969-33.445l.554-.004h4.105zm96.055 0c18.514 0 33.523 14.976 33.523 33.449 0 18.289-14.71 33.15-32.969 33.445l-.554.004h-4.105c-18.515 0-33.524-14.976-33.524-33.449 0-18.289 14.71-33.15 32.97-33.445l.554-.004h4.105zm-480.274 0c18.514 0 33.523 14.976 33.523 33.449 0 18.289-14.71 33.15-32.969 33.445l-.554.004h-4.105c-18.514 0-33.523-14.976-33.523-33.449 0-18.289 14.71-33.15 32.969-33.445l.554-.004h4.105zm-288.164 0c18.514 0 33.523 14.976 33.523 33.449 0 18.289-14.71 33.15-32.969 33.445l-.554.004h-4.105c-18.515 0-33.524-14.976-33.524-33.449 0-18.289 14.71-33.15 32.97-33.445l.554-.004h4.105zm480.273 0c18.515 0 33.524 14.976 33.524 33.449 0 18.289-14.71 33.15-32.97 33.445l-.554.004h-4.104c-18.515 0-33.524-14.976-33.524-33.449 0-18.289 14.71-33.15 32.97-33.445l.554-.004h4.104zm-384.218 0c18.514 0 33.523 14.976 33.523 33.449 0 18.289-14.71 33.15-32.97 33.445l-.553.004h-4.105c-18.515 0-33.524-14.976-33.524-33.449 0-18.289 14.71-33.15 32.97-33.445l.554-.004h4.105zm-768.438 0c18.514 0 33.523 14.976 33.523 33.449 0 18.289-14.71 33.15-32.969 33.445l-.554.004h-4.105c-18.515 0-33.524-14.976-33.524-33.449 0-18.289 14.71-33.15 32.97-33.445l.554-.004h4.105zm384.219 0c18.514 0 33.523 14.976 33.523 33.449 0 18.289-14.71 33.15-32.97 33.445l-.553.004h-4.105c-18.515 0-33.524-14.976-33.524-33.449 0-18.289 14.71-33.15 32.97-33.445l.554-.004h4.105zm480.273 0c18.515 0 33.524 14.976 33.524 33.449 0 18.289-14.71 33.15-32.97 33.445l-.554.004h-4.105c-18.514 0-33.523-14.976-33.523-33.449 0-18.289 14.71-33.15 32.969-33.445l.554-.004h4.105zm192.11 0c18.514 0 33.523 14.976 33.523 33.449 0 18.289-14.71 33.15-32.969 33.445l-.554.004h-4.105c-18.515 0-33.524-14.976-33.524-33.449 0-18.289 14.71-33.15 32.97-33.445l.554-.004h4.105zm-480.274 0c18.514 0 33.523 14.976 33.523 33.449 0 18.289-14.71 33.15-32.969 33.445l-.554.004h-4.105c-18.514 0-33.523-14.976-33.523-33.449 0-18.289 14.71-33.15 32.969-33.445l.554-.004h4.105zm208.301 17.072l-18.472 15.206-18.472-15.206v38.336c1.814 1.372 3.804 2.525 5.93 3.42V74.304l19.612 15.018V78.938l5.929-4.778v27.16L865.2 86.302v19.3c1.38.242 2.795.38 4.238.409l.55.005h4.106c6.049 0 11.644-1.942 16.191-5.236V62.106zm-672.383 0L199.43 77.312l-18.472-15.206v38.336c1.814 1.372 3.804 2.525 5.93 3.42V74.304l19.611 15.018V78.938l5.93-4.778v27.16l-19.613-15.018v19.3c1.38.242 2.796.38 4.239.409l.55.005h4.105c6.05 0 11.645-1.942 16.192-5.236V62.106zm1152.657 0l-18.472 15.206-18.472-15.206-.001 38.336c1.815 1.372 3.804 2.525 5.93 3.42V74.304l19.612 15.018V78.938l5.93-4.778v27.16l-19.613-15.018v19.3c1.38.242 2.796.38 4.239.409l.55.005h4.105c6.05 0 11.644-1.942 16.192-5.236V62.106zm-576.329 0l-18.472 15.206-18.472-15.206v38.336c1.814 1.372 3.804 2.525 5.93 3.42V74.304l19.612 15.018V78.938l5.93-4.778v27.16l-19.613-15.018v19.3c1.38.242 2.796.38 4.238.409l.55.005h4.106c6.05 0 11.644-1.942 16.192-5.236V62.106zm192.11 0l-18.472 15.206-18.472-15.206v38.336c1.814 1.372 3.803 2.525 5.929 3.42V74.304l19.612 15.018V78.938l5.93-4.778v27.16l-19.613-15.018v19.3c1.38.242 2.796.38 4.239.409l.55.005h4.105c6.05 0 11.644-1.942 16.192-5.236V62.106zm-672.383 0l-18.472 15.206-18.472-15.206-.001 38.336c1.814 1.372 3.804 2.525 5.93 3.42V74.304l19.612 15.018V78.938l5.93-4.778v27.16L288.87 86.302v19.3c1.38.242 2.796.38 4.239.409l.55.005h4.105c6.05 0 11.644-1.942 16.192-5.236V62.106zm960.547 0l-18.472 15.206-18.472-15.206v38.336c1.814 1.372 3.804 2.525 5.93 3.42V74.304l19.611 15.018V78.938l5.93-4.778v27.16l-19.613-15.018v19.3c1.38.242 2.796.38 4.239.409l.55.005h4.105c6.05 0 11.645-1.942 16.192-5.236V62.106zm192.11 0l-18.473 15.206-18.472-15.206v38.336c1.814 1.372 3.804 2.525 5.93 3.42V74.304l19.612 15.018V78.938l5.93-4.778v27.16l-19.613-15.018v19.3c1.38.242 2.796.38 4.239.409l.55.005h4.105c6.05 0 11.644-1.942 16.192-5.236V62.106zm-1056.603 0L391.54 77.312l-18.472-15.206v38.336c1.814 1.372 3.804 2.525 5.93 3.42V74.304l19.612 15.018V78.938l5.93-4.778v27.16l-19.613-15.018v19.3c1.38.242 2.796.38 4.238.409l.55.005h4.106c6.05 0 11.644-1.942 16.192-5.236V62.106zm192.11 0l-18.472 15.206-18.472-15.206v38.336c1.814 1.372 3.803 2.525 5.93 3.42l-.001-29.558 19.612 15.018V78.938l5.93-4.778v27.16l-19.613-15.018v19.3c1.38.242 2.796.38 4.239.409l.55.005h4.105c6.05 0 11.644-1.942 16.192-5.236V62.106zm-96.055 0l-18.472 15.206-18.472-15.206v38.336c1.814 1.372 3.804 2.525 5.93 3.42V74.304l19.612 15.018V78.938l5.929-4.778v27.16L480.98 86.302v19.3c1.38.242 2.796.38 4.238.409l.55.005h4.106c6.049 0 11.644-1.942 16.192-5.236V62.106zm192.11 0l-18.472 15.206-18.473-15.206v38.336c1.814 1.372 3.804 2.525 5.93 3.42V74.304l19.612 15.018V78.938l5.93-4.778v27.16L673.09 86.302v19.3c1.38.242 2.796.38 4.239.409l.55.005h4.105c6.05 0 11.644-1.942 16.192-5.236V62.106zm864.492 0l-18.472 15.206-18.472-15.206v38.336c1.814 1.372 3.804 2.525 5.93 3.42V74.304l19.612 15.018V78.938l5.929-4.778v27.16l-19.612-15.018v19.3c1.38.242 2.796.38 4.238.409l.55.005h4.106c6.049 0 11.644-1.942 16.192-5.236V62.106zm-1440.82 0l-18.473 15.206-18.472-15.206v38.336c1.814 1.372 3.804 2.525 5.93 3.42V74.304l19.612 15.018V78.938l5.929-4.778v27.16L96.762 86.302v19.3c1.38.242 2.796.38 4.238.409l.55.005h4.106c6.049 0 11.644-1.942 16.192-5.236V62.106zm960.547 0l-18.473 15.206-18.472-15.206v38.336c1.814 1.372 3.804 2.525 5.93 3.42V74.304l19.612 15.018V78.938l5.93-4.778v27.16l-19.613-15.018v19.3c1.38.242 2.796.38 4.239.409l.55.005h4.105c6.05 0 11.644-1.942 16.192-5.236V62.106zm-1056.575 0L7.348 77.312l-18.472-15.206v38.336c1.814 1.372 3.803 2.525 5.93 3.42l-.001-29.558 19.612 15.018V78.938l5.93-4.778v27.16L.734 86.302v19.3c1.38.242 2.796.38 4.239.409l.55.005h4.105c6.05 0 11.644-1.942 16.192-5.236V62.106zm1152.63 0l-18.473 15.206-18.472-15.206v38.336c1.814 1.372 3.804 2.525 5.93 3.42V74.304l19.612 15.018V78.938l5.929-4.778v27.16l-19.612-15.018v19.3c1.38.242 2.796.38 4.238.409l.55.005h4.106c6.05 0 11.644-1.942 16.192-5.236V62.106zm-474.344-.083v32.92c3.437-4.591 5.472-10.289 5.472-16.46 0-6.171-2.035-11.869-5.472-16.46zm288.164 0v32.92c3.437-4.591 5.472-10.289 5.472-16.46 0-6.171-2.035-11.869-5.472-16.46zm-960.52 0v32.92c3.437-4.591 5.472-10.289 5.472-16.46 0-6.171-2.035-11.869-5.472-16.46zm96.028 0v32.92c3.437-4.591 5.472-10.289 5.472-16.46 0-6.171-2.035-11.869-5.472-16.46zm672.383 0v32.92c3.437-4.591 5.472-10.289 5.472-16.46 0-6.171-2.035-11.869-5.472-16.46zm-288.164 0v32.92c3.437-4.591 5.472-10.289 5.472-16.46 0-6.171-2.035-11.869-5.472-16.46zm96.055 0v32.92c3.436-4.591 5.471-10.289 5.471-16.46 0-6.171-2.035-11.869-5.471-16.46zm480.273 0v32.92c3.437-4.591 5.472-10.289 5.472-16.46 0-6.171-2.035-11.869-5.472-16.46zm-192.11 0v32.92c3.438-4.591 5.473-10.289 5.473-16.46 0-6.171-2.035-11.869-5.472-16.46zm672.384 0v32.92c3.437-4.591 5.472-10.289 5.472-16.46 0-6.171-2.035-11.869-5.472-16.46zm-288.164 0v32.92c3.437-4.591 5.472-10.289 5.472-16.46 0-6.171-2.035-11.869-5.472-16.46zm96.054 0v32.92c3.437-4.591 5.472-10.289 5.472-16.46 0-6.171-2.035-11.869-5.472-16.46zm-192.11 0v32.92c3.438-4.591 5.473-10.289 5.473-16.46 0-6.171-2.035-11.869-5.472-16.46zm-960.546 0v32.92c3.436-4.591 5.471-10.289 5.471-16.46 0-6.171-2.035-11.869-5.471-16.46zm96.054 0v32.92c3.437-4.591 5.472-10.289 5.472-16.46 0-6.171-2.035-11.869-5.472-16.46zm1152.657 0v32.92c3.437-4.591 5.472-10.289 5.472-16.46 0-6.171-2.035-11.869-5.472-16.46zm-1056.602 0v32.92c3.437-4.591 5.472-10.289 5.472-16.46 0-6.171-2.035-11.869-5.472-16.46zm527.524.626c-3.16 4.479-5.017 9.94-5.017 15.834s1.856 11.355 5.017 15.834V62.65zm-384.219 0c-3.16 4.479-5.017 9.94-5.017 15.834s1.856 11.355 5.017 15.834V62.65zm192.11 0c-3.161 4.479-5.017 9.94-5.017 15.834s1.856 11.355 5.017 15.834V62.65zm-576.329 0c-3.16 4.479-5.017 9.94-5.017 15.834s1.857 11.355 5.017 15.834V62.65zm672.383 0c-3.16 4.479-5.016 9.94-5.016 15.834s1.856 11.355 5.016 15.834V62.65zm-192.109 0c-3.16 4.479-5.017 9.94-5.017 15.834s1.856 11.355 5.017 15.834V62.65zm672.383 0c-3.16 4.479-5.017 9.94-5.017 15.834s1.856 11.355 5.017 15.834V62.65zm-1248.711 0c-3.161 4.479-5.017 9.94-5.017 15.834s1.856 11.355 5.017 15.834V62.65zm1056.602 0c-3.161 4.479-5.017 9.94-5.017 15.834s1.856 11.355 5.017 15.834V62.65zm-768.438 0c-3.161 4.479-5.017 9.94-5.017 15.834s1.856 11.355 5.017 15.834V62.65zm1056.602 0c-3.161 4.479-5.017 9.94-5.017 15.834s1.856 11.355 5.017 15.834V62.65zm-384.22 0c-3.16 4.479-5.016 9.94-5.016 15.834s1.856 11.355 5.017 15.834V62.65zm192.11 0c-3.16 4.479-5.017 9.94-5.017 15.834s1.857 11.355 5.017 15.834V62.65zm-960.547 0c-3.16 4.479-5.017 9.94-5.017 15.834s1.856 11.355 5.017 15.834V62.65zm-288.137 0c-3.16 4.479-5.017 9.94-5.017 15.834s1.856 11.355 5.017 15.834V62.65zm1536.849 0c-3.161 4.479-5.017 9.94-5.017 15.834s1.856 11.355 5.017 15.834V62.65zm-1056.602 0c-3.161 4.479-5.017 9.94-5.017 15.834s1.856 11.355 5.017 15.834V62.65zM970.148 50.95h-4.105c-5.654 0-10.91 1.697-15.286 4.608l17.11 14.084 17.18-14.141h.302c-4.359-2.876-9.584-4.55-15.2-4.55zm-864.492 0h-4.105c-5.654 0-10.91 1.697-15.287 4.608l17.111 14.084 17.18-14.141h.301c-4.359-2.876-9.583-4.55-15.2-4.55zm1344.766 0h-4.105c-5.654 0-10.91 1.697-15.287 4.608l17.111 14.084 17.18-14.141h.302c-4.36-2.876-9.584-4.55-15.201-4.55zm-288.164 0h-4.105c-5.654 0-10.91 1.697-15.287 4.608l17.111 14.084 17.18-14.141h.301c-4.359-2.876-9.583-4.55-15.2-4.55zm-768.438 0h-4.105c-5.654 0-10.91 1.697-15.287 4.608l17.111 14.084 17.18-14.141h.302c-4.36-2.876-9.584-4.55-15.201-4.55zm672.383 0h-4.105c-5.654 0-10.91 1.697-15.287 4.608l17.111 14.084 17.18-14.141h.302c-4.36-2.876-9.584-4.55-15.201-4.55zm-480.274 0h-4.105c-5.653 0-10.91 1.697-15.286 4.608l17.11 14.084 17.18-14.141h.302c-4.359-2.876-9.584-4.55-15.2-4.55zm960.548 0h-4.105c-5.654 0-10.91 1.697-15.287 4.608l17.111 14.084 17.18-14.141h.301c-4.359-2.876-9.583-4.55-15.2-4.55zm-1248.712 0h-4.105c-5.654 0-10.91 1.697-15.286 4.608l17.11 14.084 17.18-14.141h.302c-4.36-2.876-9.584-4.55-15.2-4.55zm384.219 0h-4.105c-5.654 0-10.91 1.697-15.287 4.608l17.112 14.084 17.178-14.141h.303c-4.36-2.876-9.584-4.55-15.201-4.55zm-480.274 0h-4.105c-5.653 0-10.91 1.697-15.286 4.608l17.11 14.084 17.18-14.141h.302c-4.359-2.876-9.584-4.55-15.2-4.55zm288.165 0h-4.105c-5.654 0-10.91 1.697-15.287 4.608l17.111 14.084 17.179-14.141h.302c-4.359-2.876-9.584-4.55-15.2-4.55zm384.219 0h-4.105c-5.654 0-10.911 1.697-15.287 4.608l17.111 14.084 17.179-14.141h.302c-4.359-2.876-9.584-4.55-15.2-4.55zm-96.055 0h-4.105c-5.654 0-10.91 1.697-15.287 4.608l17.111 14.084 17.18-14.141h.301c-4.358-2.876-9.583-4.55-15.2-4.55zm576.328 0h-4.105c-5.654 0-10.91 1.697-15.286 4.608l17.11 14.084 17.18-14.141h.302c-4.359-2.876-9.584-4.55-15.2-4.55zm-96.055 0h-4.104c-5.654 0-10.911 1.697-15.287 4.608l17.11 14.084 17.18-14.141h.302c-4.359-2.876-9.584-4.55-15.2-4.55zm-1248.684 0H5.523c-5.653 0-10.91 1.697-15.286 4.608l17.11 14.084 17.18-14.141h.302c-4.359-2.876-9.584-4.55-15.2-4.55zM537.902-29c18.514 0 33.523 14.976 33.523 33.45 0 18.288-14.71 33.148-32.969 33.444l-.554.004h-4.105c-18.514 0-33.523-14.976-33.523-33.449 0-18.289 14.71-33.15 32.969-33.445l.554-.004h4.105zM57.628-29c18.515 0 33.524 14.976 33.524 33.45 0 18.288-14.71 33.148-32.97 33.444l-.554.004h-4.105C35.01 37.898 20 22.922 20 4.45 20-13.84 34.71-28.7 52.969-28.996l.554-.004h4.105zm96.055 0c18.514 0 33.523 14.976 33.523 33.45 0 18.288-14.71 33.148-32.969 33.444l-.554.004h-4.105c-18.514 0-33.523-14.976-33.523-33.449 0-18.289 14.71-33.15 32.969-33.445l.554-.004h4.105zm1248.712 0c18.514 0 33.523 14.976 33.523 33.45 0 18.288-14.71 33.148-32.97 33.444l-.553.004h-4.105c-18.515 0-33.524-14.976-33.524-33.449 0-18.289 14.71-33.15 32.97-33.445l.554-.004h4.105zM249.738-29c18.514 0 33.523 14.976 33.523 33.45 0 18.288-14.71 33.148-32.969 33.444l-.554.004h-4.105c-18.515 0-33.524-14.976-33.524-33.449 0-18.289 14.71-33.15 32.97-33.445l.554-.004h4.105zm576.328 0c18.515 0 33.524 14.976 33.524 33.45 0 18.288-14.71 33.148-32.97 33.444l-.554.004h-4.105c-18.514 0-33.523-14.976-33.523-33.449 0-18.289 14.71-33.15 32.969-33.445l.554-.004h4.105zm384.22 0c18.514 0 33.522 14.976 33.522 33.45 0 18.288-14.71 33.148-32.969 33.444l-.554.004h-4.105c-18.514 0-33.523-14.976-33.523-33.449 0-18.289 14.71-33.15 32.969-33.445l.554-.004h4.105zm-96.056 0c18.515 0 33.524 14.976 33.524 33.45 0 18.288-14.71 33.148-32.97 33.444l-.554.004h-4.105c-18.514 0-33.523-14.976-33.523-33.449 0-18.289 14.71-33.15 32.97-33.445l.553-.004h4.105zm-672.383 0c18.515 0 33.524 14.976 33.524 33.45 0 18.288-14.71 33.148-32.97 33.444l-.554.004h-4.105c-18.514 0-33.523-14.976-33.523-33.449 0-18.289 14.71-33.15 32.969-33.445l.554-.004h4.105zm480.274 0c18.514 0 33.523 14.976 33.523 33.45 0 18.288-14.71 33.148-32.969 33.444l-.554.004h-4.105c-18.514 0-33.523-14.976-33.523-33.449 0-18.289 14.71-33.15 32.969-33.445l.554-.004h4.105zm-288.164 0c18.514 0 33.523 14.976 33.523 33.45 0 18.288-14.71 33.148-32.969 33.444l-.554.004h-4.105c-18.515 0-33.524-14.976-33.524-33.449 0-18.289 14.71-33.15 32.97-33.445l.554-.004h4.105zm-288.165 0c18.515 0 33.524 14.976 33.524 33.45 0 18.288-14.71 33.148-32.97 33.444l-.554.004h-4.104c-18.515 0-33.524-14.976-33.524-33.449 0-18.289 14.71-33.15 32.97-33.445l.554-.004h4.104zm1152.657 0c18.515 0 33.524 14.976 33.524 33.45 0 18.288-14.71 33.148-32.97 33.444l-.554.004h-4.105c-18.514 0-33.523-14.976-33.523-33.449 0-18.289 14.71-33.15 32.969-33.445l.554-.004h4.105zm96.18 0c18.514 0 33.523 14.976 33.523 33.45 0 18.288-14.71 33.148-32.97 33.444l-.554.004h-4.105C1572.01 37.898 1557 22.922 1557 4.45c0-18.289 14.71-33.15 32.969-33.445l.554-.004h4.105zM730.01-29c18.515 0 33.524 14.976 33.524 33.45 0 18.288-14.71 33.148-32.97 33.444l-.554.004h-4.105c-18.514 0-33.523-14.976-33.523-33.449 0-18.289 14.71-33.15 32.97-33.445l.553-.004h4.105zm288.165 0c18.514 0 33.523 14.976 33.523 33.45 0 18.288-14.71 33.148-32.969 33.444l-.554.004h-4.105c-18.515 0-33.524-14.976-33.524-33.449 0-18.289 14.71-33.15 32.97-33.445l.554-.004h4.105zm288.164 0c18.514 0 33.523 14.976 33.523 33.45 0 18.288-14.71 33.148-32.969 33.444l-.554.004h-4.105c-18.515 0-33.523-14.976-33.523-33.449 0-18.289 14.71-33.15 32.969-33.445l.554-.004h4.105zM938.312-11.928L919.84 3.278l-18.472-15.206v38.336c1.814 1.372 3.804 2.525 5.93 3.42V.27l19.612 15.018V4.904l5.93-4.778v27.16l-19.613-15.018v19.3c1.38.242 2.796.38 4.238.409l.551.005h4.105c6.05 0 11.644-1.942 16.192-5.236v-38.674zm-384.218 0L535.62 3.278 517.15-11.928v38.336c1.814 1.372 3.804 2.525 5.93 3.42V.27l19.612 15.018V4.904l5.93-4.778v27.16l-19.613-15.018v19.3c1.38.242 2.796.38 4.239.409l.55.005h4.105c6.05 0 11.644-1.942 16.192-5.236v-38.674zm96.054 0L631.676 3.278l-18.472-15.206v38.336c1.814 1.372 3.804 2.525 5.93 3.42V.27l19.612 15.018V4.904l5.929-4.778v27.16l-19.612-15.018v19.3c1.38.242 2.796.38 4.238.409l.55.005h4.106c6.05 0 11.644-1.942 16.192-5.236v-38.674zm864.493 0l-18.472 15.206-18.472-15.206v38.336c1.814 1.372 3.803 2.525 5.93 3.42L1483.625.27l19.612 15.018V4.904l5.93-4.778v27.16l-19.613-15.018v19.3c1.38.242 2.796.38 4.239.409l.55.005h4.105c6.05 0 11.644-1.942 16.192-5.236v-38.674zm-1152.657 0L343.512 3.278 325.04-11.928v38.336c1.814 1.372 3.804 2.525 5.93 3.42V.27l19.612 15.018V4.904L356.51.126v27.16l-19.612-15.018v19.3c1.38.242 2.795.38 4.238.409l.55.005h4.105c6.05 0 11.645-1.942 16.192-5.236v-38.674zm-96.055 0L247.457 3.278l-18.472-15.206v38.336c1.814 1.372 3.804 2.525 5.93 3.42V.27l19.612 15.018V4.904l5.93-4.778v27.16l-19.613-15.018v19.3c1.38.242 2.796.38 4.238.409l.55.005h4.106c6.05 0 11.644-1.942 16.192-5.236v-38.674zm1344.89 0l-18.471 15.206-18.472-15.206v38.336c1.814 1.372 3.803 2.525 5.93 3.42L1579.804.27l19.612 15.018V4.904l5.93-4.778v27.16l-19.613-15.018v19.3c1.38.242 2.796.38 4.239.409l.55.005h4.105c6.05 0 11.644-1.942 16.192-5.236v-38.674zm-192.233 0l-18.472 15.206-18.472-15.206v38.336c1.814 1.372 3.804 2.525 5.93 3.42V.27l19.612 15.018V4.904l5.929-4.778v27.16L1393.5 12.268v19.3c1.38.242 2.796.38 4.238.409l.55.005h4.106c6.049 0 11.644-1.942 16.191-5.236v-38.674zm-288.164 0L1111.95 3.278l-18.472-15.206v38.336c1.814 1.372 3.803 2.525 5.93 3.42V.27l19.611 15.018V4.904l5.93-4.778v27.16l-19.613-15.018v19.3c1.38.242 2.796.38 4.239.409l.55.005h4.105c6.05 0 11.644-1.942 16.192-5.236v-38.674zm-384.219 0L727.731 3.278l-18.472-15.206v38.336c1.814 1.372 3.804 2.525 5.93 3.42V.27L734.8 15.288V4.904l5.93-4.778v27.16l-19.613-15.018v19.3c1.38.242 2.796.38 4.239.409l.55.005h4.105c6.05 0 11.645-1.942 16.192-5.236v-38.674zm480.274 0l-18.472 15.206-18.473-15.206v38.336c1.814 1.372 3.804 2.525 5.93 3.42V.27l19.612 15.018V4.904l5.93-4.778v27.16l-19.613-15.018v19.3c1.38.242 2.796.38 4.239.409l.55.005h4.105c6.05 0 11.644-1.942 16.192-5.236v-38.674zm-768.438 0L439.567 3.278l-18.472-15.206v38.336c1.814 1.372 3.803 2.525 5.929 3.42V.27l19.612 15.018V4.904l5.93-4.778v27.16l-19.613-15.018v19.3c1.38.242 2.796.38 4.239.409l.55.005h4.105c6.05 0 11.644-1.942 16.192-5.236v-38.674zm-384.22 0L55.349 3.278 36.876-11.928v38.336c1.814 1.372 3.803 2.525 5.93 3.42L42.804.27l19.612 15.018V4.904l5.93-4.778v27.16L48.734 12.268v19.3c1.38.242 2.796.38 4.239.409l.55.005h4.105c6.05 0 11.644-1.942 16.192-5.236v-38.674zm768.439 0L823.786 3.278l-18.472-15.206-.001 38.336c1.815 1.372 3.804 2.525 5.93 3.42V.27l19.612 15.018V4.904l5.93-4.778v27.16l-19.613-15.018v19.3c1.38.242 2.796.38 4.239.409l.55.005h4.105c6.05 0 11.644-1.942 16.192-5.236v-38.674zm192.11 0l-18.473 15.206-18.472-15.206v38.336c1.814 1.372 3.804 2.525 5.93 3.42V.27l19.612 15.018V4.904l5.929-4.778v27.16l-19.612-15.018v19.3c1.38.242 2.796.38 4.238.409l.55.005h4.106c6.049 0 11.644-1.942 16.192-5.236v-38.674zm-864.493 0L151.403 3.278 132.93-11.928v38.336c1.814 1.372 3.804 2.525 5.93 3.42V.27l19.612 15.018V4.904l5.93-4.778v27.16l-19.613-15.018v19.3c1.38.242 2.796.38 4.239.409l.55.005h4.105c6.05 0 11.644-1.942 16.192-5.236v-38.674zm1152.656 0L1304.06 3.278l-18.472-15.206v38.336c1.814 1.372 3.804 2.525 5.93 3.42V.27l19.612 15.018V4.904l5.93-4.778v27.16l-19.613-15.018v19.3c1.38.242 2.796.38 4.238.409l.55.005h4.106c6.05 0 11.644-1.942 16.192-5.236v-38.674zm198.04-.083v32.92c3.437-4.591 5.472-10.289 5.472-16.46 0-6.171-2.035-11.868-5.472-16.46zm-1056.602 0v32.92c3.437-4.591 5.472-10.289 5.472-16.46 0-6.171-2.035-11.868-5.472-16.46zm384.22 0v32.92c3.436-4.591 5.471-10.289 5.471-16.46 0-6.171-2.035-11.868-5.472-16.46zm288.164 0v32.92c3.436-4.591 5.471-10.289 5.471-16.46 0-6.171-2.035-11.868-5.471-16.46zm-576.329 0v32.92c3.437-4.591 5.472-10.289 5.472-16.46 0-6.171-2.035-11.868-5.472-16.46zm-192.11 0v32.92c3.438-4.591 5.473-10.289 5.473-16.46 0-6.171-2.035-11.868-5.472-16.46zm864.493 0v32.92c3.437-4.591 5.472-10.289 5.472-16.46 0-6.171-2.035-11.868-5.472-16.46zm-1152.657 0v32.92c3.437-4.591 5.472-10.289 5.472-16.46 0-6.171-2.035-11.868-5.472-16.46zm960.548 0v32.92c3.437-4.591 5.472-10.289 5.472-16.46 0-6.171-2.035-11.868-5.472-16.46zm-288.164 0v32.92c3.437-4.591 5.471-10.289 5.471-16.46 0-6.171-2.034-11.868-5.471-16.46zm-96.055 0v32.92c3.437-4.591 5.472-10.289 5.472-16.46 0-6.171-2.035-11.868-5.472-16.46zm672.383 0v32.92c3.437-4.591 5.472-10.289 5.472-16.46 0-6.171-2.035-11.868-5.472-16.46zm288.288 0v32.92c3.437-4.591 5.472-10.289 5.472-16.46 0-6.171-2.035-11.868-5.472-16.46zm-672.507 0v32.92c3.437-4.591 5.472-10.289 5.472-16.46 0-6.171-2.035-11.868-5.472-16.46zm480.274 0v32.92c3.437-4.591 5.472-10.289 5.472-16.46 0-6.171-2.035-11.868-5.472-16.46zm-1248.712 0v32.92c3.437-4.591 5.472-10.289 5.472-16.46 0-6.171-2.035-11.868-5.472-16.46zm96.055 0v32.92c3.437-4.591 5.472-10.289 5.472-16.46 0-6.171-2.035-11.868-5.472-16.46zm911.743.626c-3.16 4.479-5.017 9.94-5.017 15.834s1.856 11.355 5.017 15.834v-31.668zm-1056.602 0c-3.16 4.479-5.017 9.94-5.017 15.834s1.856 11.355 5.017 15.834v-31.668zm1344.766 0c-3.16 4.479-5.017 9.94-5.017 15.834s1.856 11.355 5.017 15.834v-31.668zm-576.328 0c-3.161 4.479-5.017 9.94-5.017 15.834s1.856 11.355 5.017 15.834v-31.668zm-864.493 0c-3.16 4.479-5.017 9.94-5.017 15.834s1.856 11.355 5.017 15.834v-31.668zm1344.766 0c-3.16 4.479-5.016 9.94-5.016 15.834s1.856 11.355 5.016 15.834v-31.668zm-576.328 0c-3.16 4.479-5.017 9.94-5.017 15.834s1.856 11.355 5.017 15.834v-31.668zm-96.055 0c-3.16 4.479-5.017 9.94-5.017 15.834s1.857 11.355 5.017 15.834v-31.668zm288.165 0c-3.161 4.479-5.017 9.94-5.017 15.834s1.856 11.355 5.017 15.834v-31.668zm-576.329 0c-3.16 4.479-5.017 9.94-5.017 15.834s1.856 11.355 5.017 15.834v-31.668zm672.383 0c-3.16 4.479-5.017 9.94-5.017 15.834s1.856 11.355 5.017 15.834v-31.668zm480.398 0c-3.16 4.479-5.017 9.94-5.017 15.834s1.856 11.355 5.017 15.834v-31.668zm-288.288 0c-3.161 4.479-5.017 9.94-5.017 15.834s1.856 11.355 5.017 15.834v-31.668zm-1056.602 0c-3.161 4.479-5.017 9.94-5.017 15.834s1.856 11.355 5.017 15.834v-31.668zm384.219 0c-3.161 4.479-5.017 9.94-5.017 15.834s1.856 11.355 5.017 15.834v-31.668zm-96.055 0c-3.16 4.479-5.017 9.94-5.017 15.834s1.856 11.355 5.017 15.834v-31.668zm-192.11 0c-3.16 4.479-5.016 9.94-5.016 15.834s1.856 11.355 5.016 15.834v-31.668zm122.737-11.699h-4.105c-5.654 0-10.91 1.697-15.286 4.608l17.11 14.084 17.18-14.14.302-.001c-4.359-2.876-9.584-4.55-15.2-4.55zm288.164 0h-4.105c-5.653 0-10.91 1.697-15.286 4.608l17.11 14.084 17.18-14.14.302-.001c-4.359-2.876-9.584-4.55-15.2-4.55zm-576.328 0h-4.105c-5.654 0-10.91 1.697-15.287 4.608l17.112 14.084 17.178-14.14.303-.001c-4.36-2.876-9.584-4.55-15.201-4.55zm192.11 0h-4.105c-5.654 0-10.911 1.697-15.287 4.608l17.111 14.084 17.179-14.14.302-.001c-4.359-2.876-9.584-4.55-15.2-4.55zm480.273 0h-4.105c-5.654 0-10.91 1.697-15.286 4.608l17.11 14.084 17.18-14.14.302-.001c-4.36-2.876-9.584-4.55-15.2-4.55zm384.22 0h-4.106c-5.654 0-10.91 1.697-15.287 4.608l17.112 14.084 17.178-14.14.303-.001c-4.36-2.876-9.584-4.55-15.2-4.55zm288.163 0h-4.105c-5.654 0-10.91 1.697-15.286 4.608l17.11 14.084 17.18-14.14.302-.001c-4.359-2.876-9.584-4.55-15.2-4.55zm96.18 0h-4.106c-5.653 0-10.91 1.697-15.286 4.608l17.11 14.084 17.18-14.14.302-.001c-4.359-2.876-9.584-4.55-15.2-4.55zm-1537 0h-4.106c-5.653 0-10.91 1.697-15.286 4.608l17.11 14.084 17.18-14.14.302-.001c-4.359-2.876-9.584-4.55-15.2-4.55zm864.492 0h-4.105c-5.654 0-10.91 1.697-15.287 4.608L919.84-4.392l17.18-14.14.302-.001c-4.36-2.876-9.584-4.55-15.201-4.55zm-384.22 0h-4.104c-5.654 0-10.91 1.697-15.287 4.608l17.111 14.084 17.18-14.14.302-.001c-4.36-2.876-9.584-4.55-15.201-4.55zm768.439 0h-4.105c-5.654 0-10.91 1.697-15.287 4.608l17.111 14.084 17.18-14.14.301-.001c-4.358-2.876-9.583-4.55-15.2-4.55zm96.055 0h-4.105c-5.654 0-10.911 1.697-15.287 4.608l17.111 14.084 17.179-14.14.302-.001c-4.359-2.876-9.584-4.55-15.2-4.55zm-288.165 0h-4.105c-5.653 0-10.91 1.697-15.286 4.608l17.11 14.084 17.18-14.14.302-.001c-4.359-2.876-9.584-4.55-15.2-4.55zm-96.054 0h-4.105c-5.654 0-10.91 1.697-15.287 4.608l17.111 14.084 17.179-14.14.302-.001c-4.359-2.876-9.584-4.55-15.2-4.55zm-384.22 0h-4.104c-5.654 0-10.91 1.697-15.287 4.608l17.111 14.084 17.18-14.14.301-.001c-4.359-2.876-9.583-4.55-15.2-4.55zm-384.218 0h-4.105c-5.654 0-10.91 1.697-15.287 4.608l17.111 14.084 17.18-14.14.301-.001c-4.358-2.876-9.583-4.55-15.2-4.55z"/>
</svg>
