<svg id="Layer_1" enable-background="new 0 0 64 64" height="512" viewBox="0 0 64 64" width="512" xmlns="http://www.w3.org/2000/svg"><path d="m31 2h2v5h-2z"/><path d="m11 9.2h2v5.7h-2z" transform="matrix(.707 -.707 .707 .707 -4.971 12)"/><path d="m20 3.8h2v4.5h-2z" transform="matrix(.894 -.447 .447 .894 -.466 10.025)"/><path d="m6 17.8h2v6.3h-2z" transform="matrix(.316 -.949 .949 .316 -15.136 21)"/><path d="m12 28v1.7c0 6.2 2.8 12.1 7.6 16.1l1.2 1c2.1 1.7 3.2 4.2 3.2 6.9v5.3c0 1.7 1.3 3 3 3h10c1.7 0 3-1.3 3-3v-5.3c0-2.7 1.2-5.2 3.2-6.9l1.2-1c4.8-4 7.6-9.9 7.6-16.1v-1.7c0-7.6-4.6-14.6-11.6-17.5l-.2-.1c-5.2-2.2-11.1-2.2-16.3 0l-.2.1c-7.1 2.9-11.7 9.8-11.7 17.5zm13.9 24h12.3c-.1.6-.1 1.1-.1 1.7v1.3h-12.1v-1.3c0-.6-.1-1.1-.1-1.7zm11.1 8h-10c-.6 0-1-.4-1-1v-2h12v2c0 .6-.4 1-1 1zm-12.6-47.7.2-.1c4.7-2 10-2 14.7 0l.2.1c6.4 2.6 10.5 8.8 10.5 15.7v1.7c0 5.6-2.5 11-6.8 14.6l-1.2 1c-1.5 1.3-2.7 2.9-3.3 4.8h-5.7v-7.4l-9.6-9.7h2.2l2.4-4.8 3.9 7.8 4-6 1.5 3h3.2l-6.3 6.3 1.4 1.4 7.7-7.7h4.6v-2h-3c1.8-3.1 1.2-7.1-1.3-9.6-1.6-1.6-3.6-2.4-5.7-2.4-2.1 0-4.2.8-5.7 2.4l-.3.2-.3-.3c-3.1-3.1-8.2-3.1-11.3 0-2.6 2.5-3.1 6.5-1.3 9.6h-3v2h4.6l10.3 10.5v6.6h-5.6c-.7-1.9-1.8-3.5-3.3-4.8l-1.2-1c-4.3-3.6-6.8-9-6.8-14.6v-1.6c-.1-6.9 4-13.1 10.3-15.7zm-4.2 16.5c-.6-2.1 0-4.4 1.5-6 2.3-2.4 6.2-2.4 8.5 0l1.7 1.7 1.7-1.7c2.3-2.4 6.2-2.4 8.5 0 2.2 2.3 2.3 5.8.3 8.2h-3.9l-2.5-5-4 6-4-8.2-3.6 7.2h-2.9c-.6-.6-1-1.4-1.3-2.2z"/><path d="m2 31h6v2h-6z"/><path d="m6.2 42h5.7v2h-5.7z" transform="matrix(.707 -.707 .707 .707 -27.77 18.958)"/><path d="m49.2 11h5.7v2h-5.7z" transform="matrix(.707 -.707 .707 .707 6.745 40.284)"/><path d="m40.8 5h4.5v2h-4.5z" transform="matrix(.447 -.894 .894 .447 18.403 41.777)"/><path d="m53.8 20h6.3v2h-6.3z" transform="matrix(.949 -.316 .316 .949 -3.716 19.103)"/><path d="m56 31h6v2h-6z"/><path d="m54 40.2h2v5.7h-2z" transform="matrix(.707 -.707 .707 .707 -14.297 51.485)"/></svg>