<svg xmlns="http://www.w3.org/2000/svg" width="178" height="40" viewBox="0 0 178 40">
    <g fill="none">
        <path fill="#1F2A56" d="M63.845 27.5c1.484 0 2.823-.323 4.016-.969 1.193-.646 2.13-1.538 2.809-2.677.68-1.139 1.02-2.423 1.02-3.854 0-1.43-.34-2.715-1.02-3.854-.68-1.14-1.616-2.031-2.81-2.677-1.192-.646-2.53-.969-4.015-.969-1.485 0-2.823.323-4.016.969-1.193.646-2.13 1.541-2.81 2.687C56.34 17.302 56 18.583 56 20c0 1.417.34 2.698 1.02 3.844.68 1.146 1.616 2.041 2.809 2.687 1.193.646 2.531.969 4.016.969zm0-2.375c-.971 0-1.845-.219-2.622-.656-.777-.438-1.387-1.049-1.831-1.834-.444-.784-.666-1.663-.666-2.635 0-.972.222-1.85.666-2.635.444-.785 1.054-1.396 1.83-1.834.778-.437 1.652-.656 2.623-.656.97 0 1.845.219 2.622.656.776.438 1.387 1.049 1.83 1.834.445.784.667 1.663.667 2.635 0 .972-.222 1.85-.666 2.635-.444.785-1.055 1.396-1.831 1.834-.777.437-1.651.656-2.622.656zm19.04 2.167V17.75l4.785 7.875h1.207l4.786-8 .02 9.667h2.56l-.02-14.584h-2.227l-5.68 9.667-5.785-9.667h-2.227v14.584h2.58zm23.575 0v-5.146l5.702-9.438h-2.664l-4.307 7.104-4.266-7.104h-2.892l5.722 9.48v5.104h2.705zm15.898 0v-9.875l8.032 9.875h2.226V12.708h-2.684v9.875l-8.032-9.875h-2.226v14.584h2.684zm20.975.208c1.484 0 2.823-.323 4.016-.969 1.193-.646 2.13-1.538 2.809-2.677.68-1.139 1.02-2.423 1.02-3.854 0-1.43-.34-2.715-1.02-3.854-.68-1.14-1.616-2.031-2.81-2.677-1.192-.646-2.531-.969-4.015-.969-1.485 0-2.823.323-4.016.969-1.193.646-2.13 1.541-2.81 2.687-.68 1.146-1.02 2.427-1.02 3.844 0 1.417.34 2.698 1.02 3.844.68 1.146 1.617 2.041 2.81 2.687 1.193.646 2.531.969 4.016.969zm0-2.375c-.971 0-1.845-.219-2.622-.656-.777-.438-1.387-1.049-1.831-1.834-.444-.784-.666-1.663-.666-2.635 0-.972.222-1.85.666-2.635.444-.785 1.054-1.396 1.83-1.834.778-.437 1.652-.656 2.623-.656.97 0 1.845.219 2.622.656.776.438 1.387 1.049 1.83 1.834.445.784.667 1.663.667 2.635 0 .972-.222 1.85-.666 2.635-.444.785-1.055 1.396-1.831 1.834-.777.437-1.651.656-2.622.656zm16.376 2.167V15h4.827v-2.292h-12.36V15h4.828v12.292h2.705zm17.791 0V25.02h-8.22V21h7.034v-2.23h-7.033v-3.79h7.928v-2.272h-10.633v14.584H177.5z"/>
        <path fill="#CFB992" d="M22.476 0C33.535 0 42.5 8.954 42.5 20c0 10.93-8.78 19.813-19.68 19.997l-.344.003h-2.452C8.965 40 0 31.046 0 20 0 9.07 8.78.187 19.68.003L20.023 0h2.452zm9.671 10.208L21.114 19.3 10.08 10.208V33.13c1.084.82 2.272 1.508 3.541 2.043V17.502l11.716 8.98v-6.21l3.541-2.857v16.24l-11.715-8.98v11.54c.792.139 1.604.221 2.431.242l.43.006h2.452c3.613 0 6.955-1.162 9.672-3.131V10.208zm3.543-.05v19.684c2.053-2.745 3.268-6.152 3.268-9.842 0-3.69-1.215-7.097-3.268-9.842zm-29.152.374C4.65 13.21 3.542 16.476 3.542 20s1.108 6.79 2.996 9.468V10.532zm15.938-6.995h-2.452c-3.377 0-6.517 1.015-9.13 2.755l10.22 8.422 10.261-8.455.18-.001c-2.604-1.72-5.724-2.72-9.079-2.72z"/>
    </g>
</svg>
