<?xml version="1.0" encoding="iso-8859-1"?>
<!-- Generator: Adobe Illustrator 19.0.0, SVG Export Plug-In . SVG Version: 6.00 Build 0)  -->
<svg version="1.1" id="Layer_1" xmlns="http://www.w3.org/2000/svg" xmlns:xlink="http://www.w3.org/1999/xlink" x="0px" y="0px"
	 viewBox="0 0 511.999 511.999" style="enable-background:new 0 0 511.999 511.999;" xml:space="preserve">
<g>
	<g>
		<path d="M430.614,272.814c-16.114-44.101-36.129-81.236-59.486-110.376c-18.88-23.554-39.987-41.987-62.735-54.787
			c-27.793-15.639-51.187-19.037-62.965-19.65V69.223c0-4.142-3.357-7.5-7.5-7.5h-62.68c-4.143,0-7.5,3.358-7.5,7.5v65.26h-25.58
			c-4.143,0-7.5,3.358-7.5,7.5v39.611h-19.809c-2.68,0-5.155,1.43-6.495,3.75l-22.363,38.735c-2.071,3.587-0.842,8.174,2.745,10.245
			c3.588,2.071,8.175,0.841,10.245-2.745l20.198-34.985h173.439l86.719,150.203l-86.719,150.202H119.19L32.471,346.797
			l52.854-91.545c2.071-3.587,0.842-8.174-2.745-10.245c-3.589-2.072-8.175-0.842-10.245,2.745l-55.019,95.295
			c-1.34,2.32-1.34,5.18,0,7.5l91.049,157.702c1.34,2.32,3.815,3.75,6.495,3.75h182.1c2.68,0,5.155-1.43,6.495-3.75l91.049-157.702
			c1.339-2.321,1.339-5.18-0.001-7.5l-91.049-157.703c-1.34-2.32-3.815-3.75-6.495-3.75h-18.461v-39.611c0-4.142-3.357-7.5-7.5-7.5
			h-25.57v-31.466c10.187,0.622,30.815,3.756,55.609,17.708c33.325,18.751,80.414,61.252,115.489,157.238
			c1.11,3.041,3.984,4.928,7.045,4.928c0.854,0,1.724-0.147,2.573-0.458C430.035,281.011,432.036,276.705,430.614,272.814z
			 M156.17,181.594h-6.502v-32.111h6.502V181.594z M177.628,181.594h-6.458v-32.111h6.458V181.594z M199.086,181.594h-6.458v-32.111
			h6.458V181.594z M220.544,181.594h-6.458v-32.111h6.458V181.594z M230.428,95.333c0,0.018,0,0.035,0,0.053v39.097h-47.68v-57.76
			h47.68V95.333z M242.001,181.594h-6.457v-32.111h6.457V181.594z M257.001,149.483h6.497v32.111h-6.497V149.483z"/>
	</g>
</g>
<g>
	<g>
		<path d="M111.904,51.737L81.12,41.848c-3.942-1.269-8.169,0.902-9.435,4.847c-1.267,3.944,0.903,8.168,4.847,9.435l30.784,9.889
			c0.763,0.245,1.535,0.361,2.296,0.361c3.171,0,6.117-2.027,7.139-5.208C118.018,57.228,115.848,53.004,111.904,51.737z"/>
	</g>
</g>
<g>
	<g>
		<path d="M120.239,86.104c-1.893-3.684-6.415-5.137-10.099-3.243L81.38,97.636c-3.684,1.893-5.136,6.414-3.243,10.098
			c1.329,2.588,3.955,4.074,6.677,4.074c1.153,0,2.325-0.267,3.422-0.831l28.76-14.775C120.68,94.309,122.132,89.788,120.239,86.104
			z"/>
	</g>
</g>
<g>
	<g>
		<path d="M137.349,32.835l-14.775-28.76c-1.893-3.685-6.415-5.138-10.099-3.244c-3.684,1.893-5.136,6.414-3.243,10.098
			l14.775,28.761c1.329,2.588,3.955,4.074,6.677,4.074c1.153,0,2.325-0.267,3.422-0.831C137.79,41.04,139.242,36.519,137.349,32.835
			z"/>
	</g>
</g>
<g>
	<g>
		<path d="M471.081,375.524v-21.34c0-4.142-3.357-7.5-7.5-7.5h-11.07c-3.973-16.507-8.931-34.525-13.864-50.317
			c-1.234-3.954-5.438-6.16-9.396-4.923c-3.953,1.235-6.157,5.441-4.923,9.395c4.49,14.377,9.003,30.637,12.745,45.845h-10.686
			c-4.143,0-7.5,3.358-7.5,7.5v21.338c-15.088,9.097-24.609,25.668-24.609,43.471c0,27.956,22.748,50.7,50.71,50.7
			c27.956,0,50.7-22.744,50.7-50.7C495.689,401.192,486.169,384.622,471.081,375.524z M446.566,361.684c0.002,0,0.004,0,0.006,0
			c0.003,0,0.006,0,0.009,0h9.501v12.894h-22.193v-12.894H446.566z M444.989,454.693c-19.69,0-35.71-16.015-35.71-35.7
			c0-11.875,6.019-22.969,15.686-29.555c0.461,0.089,0.937,0.139,1.424,0.139h37.193c0.486,0,0.961-0.05,1.421-0.139
			c9.666,6.585,15.686,17.679,15.686,29.554C480.689,438.678,464.674,454.693,444.989,454.693z"/>
	</g>
</g>
<g>
	<g>
		<path d="M202.651,89.42c-4.143,0-7.5,3.358-7.5,7.5v12.646c0,4.142,3.357,7.5,7.5,7.5s7.5-3.358,7.5-7.5V96.92
			C210.151,92.778,206.793,89.42,202.651,89.42z"/>
	</g>
</g>
<g>
	<g>
		<path d="M258.552,329.765H154.62c-4.143,0-7.5,3.358-7.5,7.5c0,4.142,3.357,7.5,7.5,7.5h103.932c4.143,0,7.5-3.358,7.5-7.5
			C266.052,333.123,262.695,329.765,258.552,329.765z"/>
	</g>
</g>
<g>
	<g>
		<path d="M258.552,446.534H154.62c-4.143,0-7.5,3.358-7.5,7.5c0,4.142,3.357,7.5,7.5,7.5h103.932c4.143,0,7.5-3.358,7.5-7.5
			C266.052,449.892,262.695,446.534,258.552,446.534z"/>
	</g>
</g>
<g>
	<g>
		<path d="M308.508,364.709H104.663c-4.142,0-7.5,3.358-7.5,7.5c0,4.142,3.357,7.5,7.5,7.5h203.845c4.143,0,7.5-3.358,7.5-7.5
			C316.008,368.067,312.651,364.709,308.508,364.709z"/>
	</g>
</g>
<g>
</g>
<g>
</g>
<g>
</g>
<g>
</g>
<g>
</g>
<g>
</g>
<g>
</g>
<g>
</g>
<g>
</g>
<g>
</g>
<g>
</g>
<g>
</g>
<g>
</g>
<g>
</g>
<g>
</g>
</svg>
