<?xml version="1.0" encoding="UTF-8"?>
<svg width="498px" height="110px" viewBox="0 0 498 110" version="1.1" xmlns="http://www.w3.org/2000/svg" xmlns:xlink="http://www.w3.org/1999/xlink">
    <title>logo/simple/blue@1,5x</title>
    <g id="Branding" stroke="none" stroke-width="1" fill="none" fill-rule="evenodd">
        <g id="logo/simple/blue" fill-rule="nonzero">
            <path d="M178.052925,76.1169916 C182.225627,76.1169916 185.988858,75.2103064 189.342618,73.3969359 C192.696379,71.5835655 195.328691,69.0779944 197.239554,65.8802228 C199.150418,62.6824513 200.10585,59.0752089 200.10585,55.0584958 C200.10585,51.0417827 199.150418,47.4345404 197.239554,44.2367688 C195.328691,41.0389972 192.696379,38.5334262 189.342618,36.7200557 C185.988858,34.9066852 182.225627,34 178.052925,34 C173.880223,34 170.116992,34.9066852 166.763231,36.7200557 C163.409471,38.5334262 160.777159,41.0487465 158.866295,44.2660167 C156.955432,47.4832869 156,51.0807799 156,55.0584958 C156,59.0362117 156.955432,62.6337047 158.866295,65.8509749 C160.777159,69.0682451 163.409471,71.5835655 166.763231,73.3969359 C170.116992,75.2103064 173.880223,76.1169916 178.052925,76.1169916 Z M178.052925,69.448468 C175.32312,69.448468 172.866295,68.8342618 170.682451,67.6058496 C168.498607,66.3774373 166.78273,64.6615599 165.534819,62.4582173 C164.286908,60.2548747 163.662953,57.7883008 163.662953,55.0584958 C163.662953,52.3286908 164.286908,49.862117 165.534819,47.6587744 C166.78273,45.4554318 168.498607,43.7395543 170.682451,42.5111421 C172.866295,41.2827298 175.32312,40.6685237 178.052925,40.6685237 C180.78273,40.6685237 183.239554,41.2827298 185.423398,42.5111421 C187.607242,43.7395543 189.32312,45.4554318 190.571031,47.6587744 C191.818942,49.862117 192.442897,52.3286908 192.442897,55.0584958 C192.442897,57.7883008 191.818942,60.2548747 190.571031,62.4582173 C189.32312,64.6615599 187.607242,66.3774373 185.423398,67.6058496 C183.239554,68.8342618 180.78273,69.448468 178.052925,69.448468 Z M231.576602,75.5320334 L231.576602,48.7409471 L245.030641,70.8523677 L248.423398,70.8523677 L261.877437,48.3899721 L261.935933,75.5320334 L269.130919,75.5320334 L269.072423,34.5849582 L262.81337,34.5849582 L246.844011,61.7270195 L230.582173,34.5849582 L224.32312,34.5849582 L224.32312,75.5320334 L231.576602,75.5320334 Z M297.852368,75.5320334 L297.852368,61.0835655 L313.880223,34.5849582 L306.392758,34.5849582 L294.284123,54.5320334 L282.292479,34.5849582 L274.16156,34.5849582 L290.247911,61.2005571 L290.247911,75.5320334 L297.852368,75.5320334 Z M342.543175,75.5320334 L342.543175,47.8050139 L365.122563,75.5320334 L371.381616,75.5320334 L371.381616,34.5849582 L363.835655,34.5849582 L363.835655,62.3119777 L341.256267,34.5849582 L334.997214,34.5849582 L334.997214,75.5320334 L342.543175,75.5320334 Z M401.506964,76.1169916 C405.679666,76.1169916 409.442897,75.2103064 412.796657,73.3969359 C416.150418,71.5835655 418.78273,69.0779944 420.693593,65.8802228 C422.604457,62.6824513 423.559889,59.0752089 423.559889,55.0584958 C423.559889,51.0417827 422.604457,47.4345404 420.693593,44.2367688 C418.78273,41.0389972 416.150418,38.5334262 412.796657,36.7200557 C409.442897,34.9066852 405.679666,34 401.506964,34 C397.334262,34 393.571031,34.9066852 390.21727,36.7200557 C386.86351,38.5334262 384.231198,41.0487465 382.320334,44.2660167 C380.409471,47.4832869 379.454039,51.0807799 379.454039,55.0584958 C379.454039,59.0362117 380.409471,62.6337047 382.320334,65.8509749 C384.231198,69.0682451 386.86351,71.5835655 390.21727,73.3969359 C393.571031,75.2103064 397.334262,76.1169916 401.506964,76.1169916 Z M401.506964,69.448468 C398.777159,69.448468 396.320334,68.8342618 394.13649,67.6058496 C391.952646,66.3774373 390.236769,64.6615599 388.988858,62.4582173 C387.740947,60.2548747 387.116992,57.7883008 387.116992,55.0584958 C387.116992,52.3286908 387.740947,49.862117 388.988858,47.6587744 C390.236769,45.4554318 391.952646,43.7395543 394.13649,42.5111421 C396.320334,41.2827298 398.777159,40.6685237 401.506964,40.6685237 C404.236769,40.6685237 406.693593,41.2827298 408.877437,42.5111421 C411.061281,43.7395543 412.777159,45.4554318 414.02507,47.6587744 C415.272981,49.862117 415.896936,52.3286908 415.896936,55.0584958 C415.896936,57.7883008 415.272981,60.2548747 414.02507,62.4582173 C412.777159,64.6615599 411.061281,66.3774373 408.877437,67.6058496 C406.693593,68.8342618 404.236769,69.448468 401.506964,69.448468 Z M447.543175,75.5320334 L447.543175,41.0194986 L461.114206,41.0194986 L461.114206,34.5849582 L426.367688,34.5849582 L426.367688,41.0194986 L439.938719,41.0194986 L439.938719,75.5320334 L447.543175,75.5320334 Z M497.557103,75.5320334 L497.557103,69.1559889 L474.451253,69.1559889 L474.451253,57.8662953 L494.222841,57.8662953 L494.222841,51.6072423 L474.451253,51.6072423 L474.451253,40.9610028 L496.738162,40.9610028 L496.738162,34.5849582 L466.846797,34.5849582 L466.846797,75.5320334 L497.557103,75.5320334 Z" id="OMYNOTE" fill="#1F2A56"></path>
            <path d="M61.7359819,0 C92.1122769,0 116.737129,24.4992155 116.737129,54.7205294 C116.737129,84.6396301 92.6023114,108.950502 62.6455264,109.433728 L61.7359819,109.441059 L55.0011475,109.441059 C24.6248525,109.441059 0,84.9418433 0,54.7205294 C0,24.8014286 24.1348179,0.49055652 54.0916029,0.00733098753 L55.0011475,0 L61.7359819,0 Z M88.301162,27.9283159 L57.9944072,52.8045886 L27.6876525,27.9290604 L27.6877527,90.6452346 C30.6642985,92.8887514 33.9283064,94.7745249 37.415105,96.2382141 L37.4157466,47.8846344 L69.5932887,72.4529589 L69.5932887,55.4650264 L79.3213828,47.6478079 L79.3213828,92.0808013 L47.1438407,67.5124768 L47.1429865,99.0865176 C49.4958449,99.4961784 51.9111926,99.7250989 54.3740392,99.7583649 L55.0011475,99.7625978 L61.7359819,99.7625978 C71.6613115,99.7625978 80.8406579,96.5849599 88.3022932,91.1964542 L88.301162,27.9283159 Z M98.0310076,27.7926058 L98.0310076,81.648453 C103.670152,74.1372201 107.009035,64.8168043 107.009035,54.7205294 C107.009035,44.6242544 103.670152,35.3038387 98.0310076,27.7926058 Z M17.9586173,28.8179268 C12.7731263,36.1445789 9.72809411,45.0787657 9.72809411,54.7205294 C9.72809411,64.362293 12.7731263,73.2964799 17.9586173,80.623132 L17.9586173,28.8179268 Z M61.7359819,9.67846098 L55.0011475,9.67846098 C45.7251517,9.67846098 37.1007246,12.4539252 29.9210823,17.2156844 L57.9944072,40.2571862 L86.1795486,17.123431 L86.676095,17.123236 C79.5244466,12.4180211 70.9517842,9.67846098 61.7359819,9.67846098 Z" id="Combined-Shape" fill="#CFB992"></path>
        </g>
    </g>
</svg>