<?xml version="1.0" encoding="UTF-8"?>
<svg width="499px" height="110px" viewBox="0 0 499 110" version="1.1" xmlns="http://www.w3.org/2000/svg" xmlns:xlink="http://www.w3.org/1999/xlink">
    <title>logo/slogan/white@1,5x</title>
    <g id="Branding" stroke="none" stroke-width="1" fill="none" fill-rule="evenodd">
        <g id="logo/slogan/white" fill="#FFFFFF" fill-rule="nonzero">
            <path d="M178.367688,57.6880223 C182.54039,57.6880223 186.303621,56.781337 189.657382,54.9679666 C193.011142,53.1545961 195.643454,50.6490251 197.554318,47.4512535 C199.465181,44.2534819 200.420613,40.6462396 200.420613,36.6295265 C200.420613,32.6128134 199.465181,29.005571 197.554318,25.8077994 C195.643454,22.6100279 193.011142,20.1044568 189.657382,18.2910864 C186.303621,16.4777159 182.54039,15.5710306 178.367688,15.5710306 C174.194986,15.5710306 170.431755,16.4777159 167.077994,18.2910864 C163.724234,20.1044568 161.091922,22.6197772 159.181058,25.8370474 C157.270195,29.0543175 156.314763,32.6518106 156.314763,36.6295265 C156.314763,40.6072423 157.270195,44.2047354 159.181058,47.4220056 C161.091922,50.6392758 163.724234,53.1545961 167.077994,54.9679666 C170.431755,56.781337 174.194986,57.6880223 178.367688,57.6880223 Z M178.367688,51.0194986 C175.637883,51.0194986 173.181058,50.4052925 170.997214,49.1768802 C168.81337,47.948468 167.097493,46.2325905 165.849582,44.0292479 C164.601671,41.8259053 163.977716,39.3593315 163.977716,36.6295265 C163.977716,33.8997214 164.601671,31.4331476 165.849582,29.229805 C167.097493,27.0264624 168.81337,25.310585 170.997214,24.0821727 C173.181058,22.8537604 175.637883,22.2395543 178.367688,22.2395543 C181.097493,22.2395543 183.554318,22.8537604 185.738162,24.0821727 C187.922006,25.310585 189.637883,27.0264624 190.885794,29.229805 C192.133705,31.4331476 192.75766,33.8997214 192.75766,36.6295265 C192.75766,39.3593315 192.133705,41.8259053 190.885794,44.0292479 C189.637883,46.2325905 187.922006,47.948468 185.738162,49.1768802 C183.554318,50.4052925 181.097493,51.0194986 178.367688,51.0194986 Z M231.891365,57.1030641 L231.891365,30.3119777 L245.345404,52.4233983 L248.738162,52.4233983 L262.192201,29.9610028 L262.250696,57.1030641 L269.445682,57.1030641 L269.387187,16.1559889 L263.128134,16.1559889 L247.158774,43.2980501 L230.896936,16.1559889 L224.637883,16.1559889 L224.637883,57.1030641 L231.891365,57.1030641 Z M298.167131,57.1030641 L298.167131,42.6545961 L314.194986,16.1559889 L306.707521,16.1559889 L294.598886,36.1030641 L282.607242,16.1559889 L274.476323,16.1559889 L290.562674,42.7715877 L290.562674,57.1030641 L298.167131,57.1030641 Z M342.857939,57.1030641 L342.857939,29.3760446 L365.437326,57.1030641 L371.696379,57.1030641 L371.696379,16.1559889 L364.150418,16.1559889 L364.150418,43.8830084 L341.571031,16.1559889 L335.311978,16.1559889 L335.311978,57.1030641 L342.857939,57.1030641 Z M401.821727,57.6880223 C405.994429,57.6880223 409.75766,56.781337 413.111421,54.9679666 C416.465181,53.1545961 419.097493,50.6490251 421.008357,47.4512535 C422.91922,44.2534819 423.874652,40.6462396 423.874652,36.6295265 C423.874652,32.6128134 422.91922,29.005571 421.008357,25.8077994 C419.097493,22.6100279 416.465181,20.1044568 413.111421,18.2910864 C409.75766,16.4777159 405.994429,15.5710306 401.821727,15.5710306 C397.649025,15.5710306 393.885794,16.4777159 390.532033,18.2910864 C387.178273,20.1044568 384.545961,22.6197772 382.635097,25.8370474 C380.724234,29.0543175 379.768802,32.6518106 379.768802,36.6295265 C379.768802,40.6072423 380.724234,44.2047354 382.635097,47.4220056 C384.545961,50.6392758 387.178273,53.1545961 390.532033,54.9679666 C393.885794,56.781337 397.649025,57.6880223 401.821727,57.6880223 Z M401.821727,51.0194986 C399.091922,51.0194986 396.635097,50.4052925 394.451253,49.1768802 C392.267409,47.948468 390.551532,46.2325905 389.303621,44.0292479 C388.05571,41.8259053 387.431755,39.3593315 387.431755,36.6295265 C387.431755,33.8997214 388.05571,31.4331476 389.303621,29.229805 C390.551532,27.0264624 392.267409,25.310585 394.451253,24.0821727 C396.635097,22.8537604 399.091922,22.2395543 401.821727,22.2395543 C404.551532,22.2395543 407.008357,22.8537604 409.192201,24.0821727 C411.376045,25.310585 413.091922,27.0264624 414.339833,29.229805 C415.587744,31.4331476 416.211699,33.8997214 416.211699,36.6295265 C416.211699,39.3593315 415.587744,41.8259053 414.339833,44.0292479 C413.091922,46.2325905 411.376045,47.948468 409.192201,49.1768802 C407.008357,50.4052925 404.551532,51.0194986 401.821727,51.0194986 Z M447.857939,57.1030641 L447.857939,22.5905292 L461.428969,22.5905292 L461.428969,16.1559889 L426.682451,16.1559889 L426.682451,22.5905292 L440.253482,22.5905292 L440.253482,57.1030641 L447.857939,57.1030641 Z M497.871866,57.1030641 L497.871866,50.7270195 L474.766017,50.7270195 L474.766017,39.4373259 L494.537604,39.4373259 L494.537604,33.178273 L474.766017,33.178273 L474.766017,22.5320334 L497.052925,22.5320334 L497.052925,16.1559889 L467.16156,16.1559889 L467.16156,57.1030641 L497.871866,57.1030641 Z" id="OMYNOTE"></path>
            <path d="M162.200557,93.3147632 L162.200557,81.6155989 L160.529248,81.6155989 L160.529248,93.3147632 L162.200557,93.3147632 Z M174.70195,93.3147632 L174.70195,83.0696379 L178.713092,83.0696379 L178.713092,81.6155989 L169.036212,81.6155989 L169.036212,83.0696379 L173.047354,83.0696379 L173.047354,93.3147632 L174.70195,93.3147632 Z M186.267409,86.1281337 L186.384401,81.6155989 L184.980501,81.6155989 L185.08078,86.1281337 L186.267409,86.1281337 Z M197.615599,93.448468 C198.607242,93.448468 199.442897,93.3008357 200.122563,93.005571 C200.802228,92.7103064 201.309192,92.3091922 201.643454,91.8022284 C201.977716,91.2952646 202.144847,90.735376 202.144847,90.1225627 C202.144847,89.3871866 201.952646,88.8022284 201.568245,88.367688 C201.183844,87.9331476 200.724234,87.6100279 200.189415,87.3983287 C199.654596,87.1866295 198.947075,86.9749304 198.066852,86.7632312 C197.387187,86.6072423 196.849582,86.45961 196.454039,86.3203343 C196.058496,86.1810585 195.727019,85.9860724 195.45961,85.735376 C195.192201,85.4846797 195.058496,85.1587744 195.058496,84.7576602 C195.058496,84.2116992 195.295265,83.7660167 195.768802,83.4206128 C196.24234,83.0752089 196.952646,82.902507 197.899721,82.902507 C198.43454,82.902507 198.980501,82.9832869 199.537604,83.1448468 C200.094708,83.3064067 200.618384,83.5431755 201.108635,83.8551532 L201.108635,83.8551532 L201.660167,82.5181058 C201.181058,82.183844 200.607242,81.9275766 199.938719,81.7493036 C199.270195,81.5710306 198.590529,81.4818942 197.899721,81.4818942 C196.908078,81.4818942 196.077994,81.632312 195.409471,81.9331476 C194.740947,82.2339833 194.24234,82.6350975 193.913649,83.1364903 C193.584958,83.637883 193.420613,84.2005571 193.420613,84.8245125 C193.420613,85.5710306 193.612813,86.1643454 193.997214,86.6044568 C194.381616,87.0445682 194.844011,87.3704735 195.384401,87.5821727 C195.924791,87.7938719 196.635097,88.005571 197.51532,88.2172702 C198.21727,88.3844011 198.760446,88.5348189 199.144847,88.6685237 C199.529248,88.8022284 199.852368,88.994429 200.114206,89.2451253 C200.376045,89.4958217 200.506964,89.821727 200.506964,90.2228412 C200.506964,90.7688022 200.267409,91.2061281 199.788301,91.5348189 C199.309192,91.8635097 198.584958,92.0278552 197.615599,92.0278552 C196.880223,92.0278552 196.164345,91.902507 195.467967,91.6518106 C194.771588,91.4011142 194.200557,91.0752089 193.754875,90.6740947 L193.754875,90.6740947 L193.13649,91.9777159 C193.604457,92.4122563 194.247911,92.7660167 195.066852,93.0389972 C195.885794,93.3119777 196.735376,93.448468 197.615599,93.448468 Z M219.058496,93.3147632 L220.345404,90.3899721 L226.562674,90.3899721 L227.849582,93.3147632 L229.604457,93.3147632 L224.289694,81.6155989 L222.635097,81.6155989 L217.337047,93.3147632 L219.058496,93.3147632 Z M225.977716,89.0529248 L220.930362,89.0529248 L223.454039,83.3203343 L225.977716,89.0529248 Z M244.362117,93.3147632 L244.362117,91.8607242 L238.027855,91.8607242 L238.027855,81.6155989 L236.356546,81.6155989 L236.356546,93.3147632 L244.362117,93.3147632 Z M259.303621,93.3147632 L259.303621,91.8607242 L252.969359,91.8607242 L252.969359,81.6155989 L251.29805,81.6155989 L251.29805,93.3147632 L259.303621,93.3147632 Z M275.699164,93.3147632 L276.986072,90.3899721 L283.203343,90.3899721 L284.490251,93.3147632 L286.245125,93.3147632 L280.930362,81.6155989 L279.275766,81.6155989 L273.977716,93.3147632 L275.699164,93.3147632 Z M282.618384,89.0529248 L277.571031,89.0529248 L280.094708,83.3203343 L282.618384,89.0529248 Z M298.579387,93.3147632 C300.038997,93.3147632 301.150418,93.0417827 301.913649,92.4958217 C302.67688,91.9498607 303.058496,91.1699164 303.058496,90.1559889 C303.058496,89.3983287 302.86351,88.7715877 302.473538,88.275766 C302.083565,87.7799443 301.548747,87.4373259 300.869081,87.2479109 C301.348189,87.0139276 301.729805,86.6740947 302.013928,86.2284123 C302.29805,85.7827298 302.440111,85.2534819 302.440111,84.6406685 C302.440111,83.6935933 302.075209,82.9526462 301.345404,82.4178273 C300.615599,81.8830084 299.582173,81.6155989 298.245125,81.6155989 L298.245125,81.6155989 L292.997214,81.6155989 L292.997214,93.3147632 L298.579387,93.3147632 Z M298.094708,86.7130919 L294.668524,86.7130919 L294.668524,82.9693593 L298.094708,82.9693593 C298.952646,82.9693593 299.612813,83.1281337 300.075209,83.4456825 C300.537604,83.7632312 300.768802,84.2284123 300.768802,84.8412256 C300.768802,85.454039 300.537604,85.9192201 300.075209,86.2367688 C299.612813,86.5543175 298.952646,86.7130919 298.094708,86.7130919 L298.094708,86.7130919 Z M298.512535,91.9610028 L294.668524,91.9610028 L294.668524,88.0668524 L298.512535,88.0668524 C300.417827,88.0668524 301.370474,88.718663 301.370474,90.0222841 C301.370474,90.6908078 301.130919,91.1810585 300.651811,91.4930362 C300.172702,91.8050139 299.45961,91.9610028 298.512535,91.9610028 L298.512535,91.9610028 Z M315.94429,93.448468 C317.114206,93.448468 318.172702,93.189415 319.119777,92.6713092 C320.066852,92.1532033 320.807799,91.4401114 321.342618,90.5320334 C321.877437,89.6239554 322.144847,88.6016713 322.144847,87.4651811 C322.144847,86.3286908 321.877437,85.3064067 321.342618,84.3983287 C320.807799,83.4902507 320.066852,82.7771588 319.119777,82.2590529 C318.172702,81.7409471 317.114206,81.4818942 315.94429,81.4818942 C314.763231,81.4818942 313.699164,81.7409471 312.752089,82.2590529 C311.805014,82.7771588 311.061281,83.4930362 310.520891,84.4066852 C309.980501,85.3203343 309.710306,86.3398329 309.710306,87.4651811 C309.710306,88.5905292 309.980501,89.6100279 310.520891,90.5236769 C311.061281,91.4373259 311.805014,92.1532033 312.752089,92.6713092 C313.699164,93.189415 314.763231,93.448468 315.94429,93.448468 Z M315.94429,91.9610028 C315.086351,91.9610028 314.309192,91.7660167 313.612813,91.3760446 C312.916435,90.9860724 312.370474,90.448468 311.97493,89.7632312 C311.579387,89.0779944 311.381616,88.3119777 311.381616,87.4651811 C311.381616,86.6183844 311.579387,85.8523677 311.97493,85.1671309 C312.370474,84.4818942 312.916435,83.9442897 313.612813,83.5543175 C314.309192,83.1643454 315.086351,82.9693593 315.94429,82.9693593 C316.802228,82.9693593 317.573816,83.1643454 318.259053,83.5543175 C318.94429,83.9442897 319.48468,84.4818942 319.880223,85.1671309 C320.275766,85.8523677 320.473538,86.6183844 320.473538,87.4651811 C320.473538,88.3119777 320.275766,89.0779944 319.880223,89.7632312 C319.48468,90.448468 318.94429,90.9860724 318.259053,91.3760446 C317.573816,91.7660167 316.802228,91.9610028 315.94429,91.9610028 Z M334.562674,93.448468 C336.122563,93.448468 337.337047,93.005571 338.206128,92.1197772 C339.075209,91.2339833 339.509749,89.9498607 339.509749,88.2674095 L339.509749,88.2674095 L339.509749,81.6155989 L337.888579,81.6155989 L337.888579,88.2005571 C337.888579,89.4707521 337.604457,90.4150418 337.036212,91.0334262 C336.467967,91.6518106 335.649025,91.9610028 334.579387,91.9610028 C332.384401,91.9610028 331.286908,90.7075209 331.286908,88.2005571 L331.286908,88.2005571 L331.286908,81.6155989 L329.615599,81.6155989 L329.615599,88.2674095 C329.615599,89.9387187 330.050139,91.2200557 330.91922,92.1114206 C331.788301,93.0027855 333.002786,93.448468 334.562674,93.448468 Z M351.710306,93.3147632 L351.710306,83.0696379 L355.721448,83.0696379 L355.721448,81.6155989 L346.044568,81.6155989 L346.044568,83.0696379 L350.05571,83.0696379 L350.05571,93.3147632 L351.710306,93.3147632 Z M380.557103,93.3147632 L380.557103,91.8607242 L373.738162,91.8607242 L373.738162,88.0835655 L379.604457,88.0835655 L379.604457,86.6629526 L373.738162,86.6629526 L373.738162,83.0696379 L380.32312,83.0696379 L380.32312,81.6155989 L372.066852,81.6155989 L372.066852,93.3147632 L380.557103,93.3147632 Z M389.883008,93.3147632 L389.883008,84.8412256 L394.111421,91.8941504 L394.880223,91.8941504 L399.108635,84.7910864 L399.125348,93.3147632 L400.729805,93.3147632 L400.713092,81.6155989 L399.342618,81.6155989 L394.529248,89.8384401 L389.649025,81.6155989 L388.278552,81.6155989 L388.278552,93.3147632 L389.883008,93.3147632 Z M414.534819,93.448468 C415.704735,93.448468 416.763231,93.189415 417.710306,92.6713092 C418.657382,92.1532033 419.398329,91.4401114 419.933148,90.5320334 C420.467967,89.6239554 420.735376,88.6016713 420.735376,87.4651811 C420.735376,86.3286908 420.467967,85.3064067 419.933148,84.3983287 C419.398329,83.4902507 418.657382,82.7771588 417.710306,82.2590529 C416.763231,81.7409471 415.704735,81.4818942 414.534819,81.4818942 C413.35376,81.4818942 412.289694,81.7409471 411.342618,82.2590529 C410.395543,82.7771588 409.651811,83.4930362 409.111421,84.4066852 C408.571031,85.3203343 408.300836,86.3398329 408.300836,87.4651811 C408.300836,88.5905292 408.571031,89.6100279 409.111421,90.5236769 C409.651811,91.4373259 410.395543,92.1532033 411.342618,92.6713092 C412.289694,93.189415 413.35376,93.448468 414.534819,93.448468 Z M414.534819,91.9610028 C413.67688,91.9610028 412.899721,91.7660167 412.203343,91.3760446 C411.506964,90.9860724 410.961003,90.448468 410.56546,89.7632312 C410.169916,89.0779944 409.972145,88.3119777 409.972145,87.4651811 C409.972145,86.6183844 410.169916,85.8523677 410.56546,85.1671309 C410.961003,84.4818942 411.506964,83.9442897 412.203343,83.5543175 C412.899721,83.1643454 413.67688,82.9693593 414.534819,82.9693593 C415.392758,82.9693593 416.164345,83.1643454 416.849582,83.5543175 C417.534819,83.9442897 418.075209,84.4818942 418.470752,85.1671309 C418.866295,85.8523677 419.064067,86.6183844 419.064067,87.4651811 C419.064067,88.3119777 418.866295,89.0779944 418.470752,89.7632312 C418.075209,90.448468 417.534819,90.9860724 416.849582,91.3760446 C416.164345,91.7660167 415.392758,91.9610028 414.534819,91.9610028 Z M432.116992,93.3147632 L432.116992,83.0696379 L436.128134,83.0696379 L436.128134,81.6155989 L426.451253,81.6155989 L426.451253,83.0696379 L430.462396,83.0696379 L430.462396,93.3147632 L432.116992,93.3147632 Z M444.635097,93.3147632 L444.635097,81.6155989 L442.963788,81.6155989 L442.963788,93.3147632 L444.635097,93.3147632 Z M458.440111,93.448468 C459.610028,93.448468 460.668524,93.189415 461.615599,92.6713092 C462.562674,92.1532033 463.303621,91.4401114 463.83844,90.5320334 C464.373259,89.6239554 464.640669,88.6016713 464.640669,87.4651811 C464.640669,86.3286908 464.373259,85.3064067 463.83844,84.3983287 C463.303621,83.4902507 462.562674,82.7771588 461.615599,82.2590529 C460.668524,81.7409471 459.610028,81.4818942 458.440111,81.4818942 C457.259053,81.4818942 456.194986,81.7409471 455.247911,82.2590529 C454.300836,82.7771588 453.557103,83.4930362 453.016713,84.4066852 C452.476323,85.3203343 452.206128,86.3398329 452.206128,87.4651811 C452.206128,88.5905292 452.476323,89.6100279 453.016713,90.5236769 C453.557103,91.4373259 454.300836,92.1532033 455.247911,92.6713092 C456.194986,93.189415 457.259053,93.448468 458.440111,93.448468 Z M458.440111,91.9610028 C457.582173,91.9610028 456.805014,91.7660167 456.108635,91.3760446 C455.412256,90.9860724 454.866295,90.448468 454.470752,89.7632312 C454.075209,89.0779944 453.877437,88.3119777 453.877437,87.4651811 C453.877437,86.6183844 454.075209,85.8523677 454.470752,85.1671309 C454.866295,84.4818942 455.412256,83.9442897 456.108635,83.5543175 C456.805014,83.1643454 457.582173,82.9693593 458.440111,82.9693593 C459.29805,82.9693593 460.069638,83.1643454 460.754875,83.5543175 C461.440111,83.9442897 461.980501,84.4818942 462.376045,85.1671309 C462.771588,85.8523677 462.969359,86.6183844 462.969359,87.4651811 C462.969359,88.3119777 462.771588,89.0779944 462.376045,89.7632312 C461.980501,90.448468 461.440111,90.9860724 460.754875,91.3760446 C460.069638,91.7660167 459.29805,91.9610028 458.440111,91.9610028 Z M473.883008,93.3147632 L473.883008,84.5905292 L480.902507,93.3147632 L482.272981,93.3147632 L482.272981,81.6155989 L480.601671,81.6155989 L480.601671,90.3398329 L473.582173,81.6155989 L472.211699,81.6155989 L472.211699,93.3147632 L473.883008,93.3147632 Z M494.206128,93.448468 C495.197772,93.448468 496.033426,93.3008357 496.713092,93.005571 C497.392758,92.7103064 497.899721,92.3091922 498.233983,91.8022284 C498.568245,91.2952646 498.735376,90.735376 498.735376,90.1225627 C498.735376,89.3871866 498.543175,88.8022284 498.158774,88.367688 C497.774373,87.9331476 497.314763,87.6100279 496.779944,87.3983287 C496.245125,87.1866295 495.537604,86.9749304 494.657382,86.7632312 C493.977716,86.6072423 493.440111,86.45961 493.044568,86.3203343 C492.649025,86.1810585 492.317549,85.9860724 492.050139,85.735376 C491.78273,85.4846797 491.649025,85.1587744 491.649025,84.7576602 C491.649025,84.2116992 491.885794,83.7660167 492.359331,83.4206128 C492.832869,83.0752089 493.543175,82.902507 494.490251,82.902507 C495.02507,82.902507 495.571031,82.9832869 496.128134,83.1448468 C496.685237,83.3064067 497.208914,83.5431755 497.699164,83.8551532 L497.699164,83.8551532 L498.250696,82.5181058 C497.771588,82.183844 497.197772,81.9275766 496.529248,81.7493036 C495.860724,81.5710306 495.181058,81.4818942 494.490251,81.4818942 C493.498607,81.4818942 492.668524,81.632312 492,81.9331476 C491.331476,82.2339833 490.832869,82.6350975 490.504178,83.1364903 C490.175487,83.637883 490.011142,84.2005571 490.011142,84.8245125 C490.011142,85.5710306 490.203343,86.1643454 490.587744,86.6044568 C490.972145,87.0445682 491.43454,87.3704735 491.97493,87.5821727 C492.51532,87.7938719 493.225627,88.005571 494.10585,88.2172702 C494.807799,88.3844011 495.350975,88.5348189 495.735376,88.6685237 C496.119777,88.8022284 496.442897,88.994429 496.704735,89.2451253 C496.966574,89.4958217 497.097493,89.821727 497.097493,90.2228412 C497.097493,90.7688022 496.857939,91.2061281 496.37883,91.5348189 C495.899721,91.8635097 495.175487,92.0278552 494.206128,92.0278552 C493.470752,92.0278552 492.754875,91.902507 492.058496,91.6518106 C491.362117,91.4011142 490.791086,91.0752089 490.345404,90.6740947 L490.345404,90.6740947 L489.727019,91.9777159 C490.194986,92.4122563 490.83844,92.7660167 491.657382,93.0389972 C492.476323,93.3119777 493.325905,93.448468 494.206128,93.448468 Z" id="IT'SALLABOUTEMOTIONS"></path>
            <path d="M61.7359819,0 C92.1122769,0 116.737129,24.4992155 116.737129,54.7205294 C116.737129,84.6396301 92.6023114,108.950502 62.6455264,109.433728 L61.7359819,109.441059 L55.0011475,109.441059 C24.6248525,109.441059 0,84.9418433 0,54.7205294 C0,24.8014286 24.1348179,0.49055652 54.0916029,0.00733098753 L55.0011475,0 L61.7359819,0 Z M88.301162,27.9283159 L57.9944072,52.8045886 L27.6876525,27.9290604 L27.6877527,90.6452346 C30.6642985,92.8887514 33.9283064,94.7745249 37.415105,96.2382141 L37.4157466,47.8846344 L69.5932887,72.4529589 L69.5932887,55.4650264 L79.3213828,47.6478079 L79.3213828,92.0808013 L47.1438407,67.5124768 L47.1429865,99.0865176 C49.4958449,99.4961784 51.9111926,99.7250989 54.3740392,99.7583649 L55.0011475,99.7625978 L61.7359819,99.7625978 C71.6613115,99.7625978 80.8406579,96.5849599 88.3022932,91.1964542 L88.301162,27.9283159 Z M98.0310076,27.7926058 L98.0310076,81.648453 C103.670152,74.1372201 107.009035,64.8168043 107.009035,54.7205294 C107.009035,44.6242544 103.670152,35.3038387 98.0310076,27.7926058 Z M17.9586173,28.8179268 C12.7731263,36.1445789 9.72809411,45.0787657 9.72809411,54.7205294 C9.72809411,64.362293 12.7731263,73.2964799 17.9586173,80.623132 L17.9586173,28.8179268 Z M61.7359819,9.67846098 L55.0011475,9.67846098 C45.7251517,9.67846098 37.1007246,12.4539252 29.9210823,17.2156844 L57.9944072,40.2571862 L86.1795486,17.123431 L86.676095,17.123236 C79.5244466,12.4180211 70.9517842,9.67846098 61.7359819,9.67846098 Z" id="Combined-Shape"></path>
        </g>
    </g>
</svg>