<?xml version="1.0" encoding="UTF-8"?>
<svg width="300px" height="281px" viewBox="0 0 300 281" version="1.1" xmlns="http://www.w3.org/2000/svg" xmlns:xlink="http://www.w3.org/1999/xlink">
    <title>logo/symbol/white@1,5x</title>
    <g id="Branding" stroke="none" stroke-width="1" fill="none" fill-rule="evenodd">
        <g id="logo/symbol/white" fill="#FFFFFF" fill-rule="nonzero">
            <path d="M158.297389,0 C236.185325,0 299.325973,62.8185013 299.325973,140.30905 C299.325973,217.024693 237.441824,279.360262 160.629555,280.599302 L158.297389,280.618099 L141.028583,280.618099 C63.1406475,280.618099 0,217.799598 0,140.30905 C0,63.5934068 61.8841486,1.25783723 138.696418,0.0187974039 L141.028583,0 L158.297389,0 Z M226.413236,71.6110664 L148.703608,135.396381 L70.9939807,71.6129754 L70.9928391,232.422624 C78.6257078,238.175939 86.9958211,243.011783 95.9373042,246.765129 L95.9378118,122.781114 L178.44433,185.776818 L178.44433,142.218016 L203.388161,122.173866 L203.388161,236.104619 L120.881643,173.108915 L120.881491,254.068349 C127.149763,255.159615 133.590999,255.75059 140.162089,255.798383 L141.028583,255.801533 L158.297389,255.801533 C183.746559,255.801533 207.283011,247.653995 226.41525,233.837702 L226.413236,71.6110664 Z M251.360449,71.2616149 L251.360449,209.356485 C265.820464,190.096658 274.382142,166.197596 274.382142,140.30905 C274.382142,114.420503 265.820464,90.5214416 251.360449,71.2616149 Z M46.0484761,73.8910754 C32.7518952,92.6775581 24.9438311,115.586121 24.9438311,140.30905 C24.9438311,165.031979 32.7518952,187.940541 46.0484761,206.727024 L46.0484761,73.8910754 Z M158.297389,24.8165666 L141.028583,24.8165666 C117.244476,24.8165666 95.1309871,31.9328441 76.7218779,44.1420153 L148.703608,103.223554 L220.973202,43.9062332 L222.245302,43.9050127 C203.907962,31.8408001 181.927181,24.8165666 158.297389,24.8165666 Z" id="Combined-Shape"></path>
        </g>
    </g>
</svg>